<svg xmlns="http://www.w3.org/2000/svg" width="1254" height="1254" viewBox="0 0 1254 1254" shape-rendering="geometricPrecision">
  <path d="M 197 764 L 196 765 L 197 766 L 196 767 L 197 780 L 201 782 L 199 781 L 198 764 Z M 75 742 L 75 746 L 74 747 L 75 757 L 80 759 L 76 757 L 76 743 Z M 238 716 L 236 716 L 235 715 L 229 715 L 228 716 L 220 733 L 220 735 L 219 736 L 220 738 L 226 738 L 227 739 L 230 739 L 231 738 L 231 736 L 235 729 L 235 727 L 237 723 Z M 455 711 L 445 700 L 442 698 L 437 698 L 436 699 L 421 701 L 416 703 L 395 706 L 389 708 L 378 709 L 372 711 L 310 720 L 305 723 L 304 728 L 308 732 L 339 729 L 340 728 L 348 728 L 318 730 L 317 731 L 309 731 L 308 732 L 305 729 L 305 726 L 308 722 L 381 711 L 387 709 L 398 708 L 399 707 L 409 706 L 432 701 L 439 702 L 446 709 L 447 712 L 443 716 L 440 717 L 433 717 L 432 718 L 417 719 L 416 720 L 409 720 L 400 722 L 392 722 L 391 723 L 384 723 L 383 724 L 376 724 L 367 726 L 350 727 L 358 727 L 359 726 L 412 721 L 420 719 L 437 718 L 438 717 L 454 715 Z M 85 675 L 84 675 L 78 682 L 78 684 L 82 688 L 82 685 L 85 681 Z M 312 647 L 311 648 L 311 650 L 315 653 L 316 652 L 316 650 Z M 616 638 L 617 641 L 621 644 L 622 643 L 624 643 L 620 637 Z M 1022 636 L 1002 639 L 1000 641 L 1001 642 L 1004 642 L 1005 641 L 1016 639 Z M 630 634 L 630 636 L 632 638 L 635 638 L 633 634 Z M 643 623 L 642 625 L 648 631 L 650 635 L 650 638 L 653 640 L 656 639 L 656 636 L 651 627 L 647 623 L 645 622 Z M 655 618 L 655 620 L 659 624 L 663 632 L 662 633 L 664 636 L 668 635 L 668 631 L 666 629 L 666 627 L 661 619 L 659 618 Z M 668 615 L 667 616 L 674 625 L 676 629 L 676 632 L 677 633 L 679 633 L 681 631 L 681 629 L 678 623 L 676 621 L 674 616 L 671 614 Z M 259 610 L 257 608 L 254 609 L 248 615 L 243 618 L 232 629 L 232 630 L 233 631 L 235 631 L 246 620 L 252 620 L 252 615 L 253 614 L 255 614 L 259 611 Z M 247 619 L 249 617 L 251 618 L 250 620 L 248 620 Z M 186 603 L 175 608 L 173 608 L 170 610 L 168 610 L 163 613 L 156 615 L 138 624 L 142 624 L 143 623 L 146 623 L 147 622 L 157 620 L 158 619 L 161 619 L 162 620 L 161 621 L 159 621 L 155 623 L 152 623 L 151 624 L 148 624 L 147 625 L 144 625 L 143 626 L 140 626 L 135 628 L 133 630 L 131 630 L 130 629 L 134 626 L 132 626 L 125 629 L 118 634 L 120 633 L 122 633 L 123 634 L 117 637 L 108 646 L 106 645 L 110 639 L 105 641 L 98 648 L 97 648 L 97 649 L 93 653 L 97 653 L 98 652 L 108 652 L 109 651 L 124 651 L 125 650 L 134 650 L 136 649 L 176 609 L 177 609 L 181 605 L 184 605 Z M 99 650 L 99 649 L 103 646 L 105 646 L 106 647 L 105 648 L 108 648 L 109 649 L 102 652 Z M 133 644 L 135 647 L 132 649 L 130 646 Z M 171 613 L 169 615 L 163 615 L 162 614 L 163 613 L 168 613 L 169 612 Z M 260 605 L 266 608 L 271 605 L 268 603 L 271 599 L 280 600 L 281 602 L 275 606 L 276 611 L 275 612 L 269 612 L 267 613 L 267 614 L 271 615 L 279 609 L 287 601 L 287 600 L 267 598 L 264 600 L 260 604 Z M 559 579 L 557 580 L 547 581 L 546 582 L 542 582 L 543 585 Z M 242 567 L 238 569 L 230 576 L 214 586 L 212 585 L 215 582 L 218 581 L 234 570 L 234 569 L 233 570 L 227 571 L 211 577 L 209 579 L 213 582 L 212 583 L 208 582 L 206 585 L 206 587 L 204 589 L 203 588 L 203 584 L 204 583 L 202 587 L 202 592 L 208 587 L 210 588 L 202 595 L 192 601 L 185 608 L 185 609 L 187 609 L 197 604 L 199 602 L 215 593 L 231 581 L 239 573 Z M 854 556 L 858 566 L 867 574 L 867 575 L 878 587 L 880 587 L 881 586 L 886 586 L 887 585 L 891 585 L 891 584 L 888 582 L 881 579 L 871 572 L 862 563 L 858 561 L 854 557 Z M 270 545 L 257 549 L 251 553 L 247 557 L 244 567 L 255 559 L 261 553 L 258 553 L 256 557 L 253 559 L 252 557 L 257 551 L 259 550 L 264 550 Z M 833 536 L 843 556 L 846 559 L 846 562 L 851 572 L 853 574 L 856 581 L 860 584 L 862 579 L 867 588 L 874 588 L 868 580 L 863 578 L 856 568 L 848 562 L 849 561 L 851 561 L 851 557 L 849 554 L 838 544 L 838 543 L 839 542 L 842 545 L 842 544 L 834 536 Z M 881 529 L 879 531 L 880 545 L 881 547 L 882 547 L 887 552 L 891 560 L 890 561 L 886 555 L 881 550 L 881 556 L 885 562 L 893 569 L 893 567 L 890 562 L 891 560 L 895 565 L 896 569 L 898 572 L 903 576 L 906 575 L 904 570 L 902 568 L 901 565 L 896 558 L 893 551 L 891 549 L 889 545 L 889 543 Z M 835 533 L 852 552 L 855 553 L 863 561 L 869 565 L 874 570 L 885 576 L 894 584 L 896 584 L 900 582 L 904 582 L 905 581 L 901 577 L 898 576 L 902 580 L 901 582 L 892 573 L 892 572 L 882 563 L 878 556 L 877 548 L 873 545 L 867 536 L 858 528 L 857 528 L 862 539 L 864 541 L 866 547 L 876 557 L 879 563 L 881 565 L 881 569 L 880 570 L 877 568 L 875 568 L 873 566 L 874 562 L 865 550 L 863 550 L 862 549 L 859 550 L 853 543 L 849 541 L 838 532 L 836 532 Z M 840 531 L 855 540 L 859 544 L 862 545 L 862 543 L 856 534 L 856 532 L 854 528 L 853 529 L 849 529 L 848 530 Z M 860 527 L 866 531 L 877 543 L 877 544 L 877 542 L 876 541 L 876 532 L 872 528 L 872 527 L 870 525 Z M 785 519 L 783 520 L 775 520 L 774 521 L 763 521 L 762 522 L 754 522 L 753 523 L 744 523 L 743 524 L 736 524 L 735 525 L 728 525 L 727 526 L 719 526 L 702 537 L 691 542 L 689 544 L 682 547 L 673 553 L 656 561 L 654 563 L 652 563 L 648 566 L 644 567 L 642 569 L 646 571 L 651 572 L 654 574 L 656 574 L 659 576 L 661 576 L 664 578 L 680 583 L 683 585 L 686 585 L 702 575 L 705 572 L 705 568 L 704 567 L 705 566 L 709 568 L 708 571 L 735 554 L 732 554 L 728 551 L 730 549 L 740 547 L 742 544 L 744 543 L 748 543 L 749 544 L 747 546 L 742 548 L 740 550 L 743 549 L 759 537 L 766 533 L 769 530 L 785 520 Z M 682 576 L 686 578 L 686 580 L 684 582 L 682 582 L 679 580 Z M 651 566 L 653 566 L 656 569 L 654 572 L 652 572 L 649 569 Z M 762 529 L 763 528 L 765 528 L 766 530 L 765 531 Z M 754 527 L 755 526 L 759 526 L 760 527 L 757 529 Z M 487 502 L 485 501 L 479 501 L 476 503 L 468 511 L 446 529 L 413 559 L 407 563 L 382 585 L 380 589 L 380 594 L 381 596 L 395 610 L 396 610 L 410 625 L 413 627 L 424 626 L 433 623 L 436 621 L 441 620 L 444 618 L 452 616 L 455 614 L 491 602 L 495 595 L 500 590 L 502 591 L 498 595 L 493 604 L 495 610 L 497 610 L 500 608 L 502 608 L 505 606 L 510 605 L 513 603 L 518 602 L 523 599 L 527 598 L 521 586 L 521 589 L 517 595 L 512 598 L 506 600 L 503 600 L 502 601 L 500 600 L 504 597 L 507 597 L 514 594 L 517 591 L 518 588 L 518 582 L 516 579 L 510 559 L 504 546 L 503 541 L 501 538 L 493 514 Z M 495 605 L 498 603 L 500 603 L 502 606 L 500 608 L 499 607 L 497 608 Z M 516 584 L 513 587 L 507 590 L 505 590 L 504 591 L 502 591 L 501 590 L 506 587 L 508 587 L 512 585 L 514 583 Z M 925 498 L 924 499 L 928 507 L 930 509 L 930 511 L 949 549 L 951 551 L 952 555 L 954 557 L 957 564 L 959 566 L 968 584 L 969 584 L 971 574 L 972 573 L 973 568 L 975 565 L 975 562 L 978 560 L 977 558 L 977 556 L 978 555 L 978 544 L 979 543 L 979 538 L 978 536 L 969 525 L 963 524 L 960 522 L 953 520 L 944 515 L 942 515 L 931 509 L 928 505 L 929 504 L 938 509 L 940 509 L 947 513 L 949 513 L 956 517 L 958 517 L 970 523 L 974 520 L 975 522 L 973 525 L 982 536 L 981 548 L 982 544 L 984 541 L 984 539 L 986 536 L 985 532 L 977 520 L 975 521 L 970 518 L 963 516 L 956 512 L 954 512 Z M 969 558 L 971 561 L 967 564 L 968 565 L 968 567 L 967 568 L 963 563 L 962 560 L 963 559 Z M 969 541 L 970 542 L 970 545 L 967 547 L 966 546 L 967 545 L 967 542 Z M 959 531 L 960 532 L 958 534 L 955 535 L 953 537 L 953 539 L 952 540 L 950 538 L 950 536 L 955 532 Z M 963 530 L 964 530 L 970 536 L 970 539 L 969 540 L 967 540 L 962 533 L 962 531 Z M 624 498 L 620 500 L 620 503 L 623 508 L 623 510 L 626 515 L 626 517 L 631 526 L 631 528 L 634 533 L 634 535 L 637 540 L 637 542 L 645 557 L 649 557 L 655 554 L 657 551 L 657 544 L 654 538 L 654 536 L 648 525 L 648 523 L 645 518 L 643 511 L 634 495 L 627 498 Z M 647 543 L 650 546 L 649 548 L 650 550 L 648 552 L 643 551 L 641 549 L 641 547 Z M 636 538 L 642 533 L 650 534 L 652 536 L 652 539 L 647 543 L 644 541 L 645 539 L 639 539 L 637 540 Z M 639 516 L 643 520 L 642 521 L 643 526 L 641 528 L 639 528 L 634 531 L 633 529 L 635 527 L 633 527 L 632 526 L 633 524 L 631 525 L 630 523 Z M 633 501 L 634 502 L 635 512 L 630 516 L 627 516 L 624 510 L 630 504 L 630 503 Z M 583 489 L 574 490 L 573 491 L 565 491 L 564 492 L 549 493 L 548 494 L 542 494 L 541 495 L 535 495 L 534 496 L 525 496 L 524 497 L 507 498 L 504 501 L 504 507 L 506 510 L 509 521 L 511 524 L 514 535 L 516 538 L 517 543 L 519 546 L 522 556 L 524 559 L 529 575 L 537 579 L 539 581 L 543 579 L 546 579 L 551 577 L 556 577 L 557 576 L 562 576 L 563 577 L 570 576 L 573 574 L 584 571 L 587 569 L 589 569 L 595 566 L 605 563 L 608 561 L 610 557 L 610 549 L 606 541 L 606 539 L 603 533 L 602 528 L 600 525 L 598 517 L 595 512 L 595 510 L 593 507 L 593 505 L 591 502 L 591 500 L 588 493 Z M 466 497 L 335 487 L 324 499 L 238 579 L 247 579 L 244 576 L 333 491 L 347 489 L 391 493 L 391 498 L 344 495 L 337 493 L 252 574 L 254 578 L 345 588 L 346 590 L 344 593 L 354 594 L 414 544 Z M 455 502 L 454 507 L 447 514 L 446 514 L 437 523 L 436 523 L 421 537 L 420 537 L 401 554 L 394 559 L 374 577 L 369 580 L 355 592 L 350 591 L 347 589 L 348 588 L 354 587 L 366 577 L 367 577 L 380 565 L 381 565 L 421 530 L 422 530 L 438 515 L 446 509 L 450 504 L 449 503 L 438 503 L 437 502 L 425 502 L 424 501 L 415 501 L 414 500 L 395 499 L 394 497 L 397 494 L 403 494 L 404 495 L 415 495 L 416 496 L 426 496 L 427 497 L 437 497 L 438 498 L 449 498 L 450 499 L 452 499 Z M 1178 455 L 1168 457 L 1167 458 L 1166 467 L 1162 470 L 1162 471 L 1167 468 L 1171 468 L 1174 465 Z M 697 444 L 697 447 L 696 448 L 696 451 L 694 456 L 694 460 L 692 464 L 692 467 L 691 468 L 688 479 L 705 505 L 708 508 L 711 514 L 716 520 L 717 523 L 723 523 L 724 522 L 730 522 L 731 521 L 738 521 L 739 520 L 746 520 L 747 519 L 756 519 L 757 518 L 773 518 L 774 517 L 786 516 L 791 514 L 783 507 L 779 505 L 770 497 L 760 490 L 755 485 L 746 479 L 736 470 L 714 454 L 704 445 L 699 442 Z M 776 510 L 777 509 L 779 509 L 780 510 L 780 512 L 778 513 Z M 771 508 L 774 508 L 775 509 L 775 511 L 773 513 L 771 513 L 769 511 Z M 702 448 L 706 451 L 704 454 L 700 451 Z M 694 438 L 696 439 L 701 439 L 706 442 L 716 451 L 721 454 L 744 473 L 768 491 L 774 497 L 779 500 L 794 513 L 819 508 L 814 502 L 814 500 L 805 483 L 805 481 L 798 468 L 798 466 L 792 455 L 792 453 L 789 447 L 787 445 L 763 444 L 762 443 L 744 443 L 743 442 L 732 442 L 731 441 L 723 441 L 722 440 L 713 440 L 712 439 L 707 439 L 706 438 L 703 438 L 702 439 Z M 817 506 L 815 509 L 811 509 L 810 510 L 797 511 L 794 509 L 795 507 L 799 507 L 800 506 L 811 506 L 812 505 L 816 505 Z M 786 504 L 788 503 L 791 506 L 789 507 Z M 805 498 L 807 498 L 809 500 L 809 502 L 807 504 L 803 502 L 803 500 Z M 780 499 L 782 498 L 786 502 L 784 503 Z M 753 478 L 755 477 L 776 494 L 778 494 L 779 492 L 781 491 L 784 495 L 781 497 L 780 499 L 779 499 Z M 749 475 L 751 474 L 754 477 L 752 478 Z M 745 472 L 747 471 L 750 474 L 748 475 Z M 752 468 L 754 468 L 757 471 L 755 474 L 752 473 L 750 471 Z M 739 467 L 741 466 L 745 470 L 743 471 Z M 731 460 L 733 459 L 739 465 L 737 466 Z M 731 454 L 735 451 L 739 455 L 739 457 L 738 458 L 735 458 Z M 772 449 L 774 447 L 779 447 L 783 452 L 781 454 L 779 454 L 776 450 L 773 450 Z M 719 446 L 720 445 L 723 445 L 725 448 L 722 450 L 719 448 Z M 1177 432 L 1167 434 L 1167 438 L 1168 439 L 1167 452 L 1174 452 L 1178 450 L 1178 448 L 1179 447 L 1178 447 L 1176 444 L 1179 440 L 1179 434 Z M 433 460 L 435 461 L 449 461 L 450 462 L 464 462 L 465 463 L 476 463 L 477 464 L 482 464 L 484 454 L 482 454 L 481 453 L 476 453 L 475 452 L 475 442 L 476 441 L 476 438 L 478 436 L 493 437 L 494 436 L 493 435 L 497 431 L 497 430 L 500 427 L 502 427 L 499 427 L 498 426 L 485 426 L 494 426 L 496 429 L 494 432 L 492 432 L 491 433 L 481 433 L 480 432 L 481 428 L 465 427 L 463 430 L 456 430 L 453 426 L 447 426 L 445 427 L 443 430 L 442 430 L 445 430 L 446 431 L 459 431 L 460 432 L 489 433 L 490 435 L 489 436 L 487 436 L 486 435 L 472 435 L 472 440 L 471 441 L 470 451 L 467 453 L 468 454 L 475 454 L 476 455 L 480 455 L 481 456 L 480 457 L 475 457 L 474 456 L 466 456 L 464 454 L 467 448 L 468 440 L 469 439 L 469 435 L 443 433 L 441 451 L 438 453 L 437 452 L 438 451 L 437 450 L 433 457 Z M 451 435 L 461 435 L 465 437 L 461 447 L 461 450 L 460 451 L 460 454 L 458 459 L 457 458 L 457 455 L 450 455 L 449 454 L 450 453 L 458 453 L 457 452 L 452 452 L 451 451 L 449 451 L 447 449 L 448 440 L 449 439 L 449 437 Z M 598 425 L 593 425 L 592 426 L 587 426 L 586 427 L 582 427 L 581 428 L 576 428 L 571 430 L 573 429 L 577 429 L 578 428 L 583 428 L 584 427 L 593 426 L 594 425 Z M 805 410 L 803 410 L 797 418 L 796 434 L 800 434 L 800 417 L 802 412 Z M 480 373 L 478 374 L 477 376 L 477 387 L 479 389 L 484 389 L 488 384 L 488 378 L 484 374 Z M 478 380 L 479 379 L 481 379 L 482 380 L 482 382 L 481 383 L 479 383 L 478 382 Z M 845 315 L 852 320 L 867 335 L 869 338 L 871 337 L 873 338 L 885 338 L 877 329 L 876 329 L 870 323 L 866 321 L 859 315 L 857 315 L 856 316 L 854 315 Z M 871 332 L 872 331 L 874 331 L 875 332 L 873 334 Z M 859 322 L 862 320 L 864 321 L 863 323 L 860 323 Z M 1173 382 L 1124 328 L 1042 316 L 918 389 L 874 320 L 890 342 L 838 313 L 854 309 L 794 304 L 716 342 L 689 410 L 672 391 L 639 414 L 579 402 L 581 352 L 641 257 L 568 358 L 472 372 L 511 403 L 334 485 L 478 486 L 531 601 L 418 643 L 491 605 L 415 632 L 377 596 L 469 500 L 360 593 L 411 648 L 627 555 L 682 595 L 624 581 L 424 653 L 492 673 L 507 726 L 479 727 L 503 724 L 489 677 L 345 702 L 485 675 L 414 656 L 285 709 L 256 748 L 282 703 L 404 651 L 350 597 L 225 695 L 211 735 L 210 707 L 137 695 L 122 726 L 193 738 L 120 731 L 136 674 L 124 713 L 136 682 L 217 709 L 348 596 L 235 583 L 83 724 L 131 654 L 59 675 L 31 748 L 79 805 L 60 720 L 68 763 L 232 794 L 232 763 L 170 752 L 235 756 L 69 734 L 64 687 L 74 726 L 245 754 L 583 725 L 1055 629 L 583 734 L 255 760 L 480 751 L 235 763 L 234 797 L 69 765 L 114 843 L 309 885 L 263 861 L 292 855 L 243 846 L 276 849 L 268 793 L 305 769 L 273 790 L 276 840 L 368 911 L 596 910 L 1074 764 L 1209 693 L 1218 645 L 1185 613 L 1030 625 L 1143 601 L 1054 564 L 1157 518 L 1165 428 L 1142 478 L 1148 428 L 1184 429 L 1171 489 L 1185 450 Z M 624 882 L 625 884 L 621 888 L 620 886 Z M 260 880 L 261 879 L 263 879 L 264 880 L 263 881 L 261 881 Z M 447 875 L 449 872 L 489 872 L 490 873 L 489 875 L 490 876 L 490 879 L 489 880 L 489 882 L 487 884 L 485 882 L 485 880 L 484 879 L 482 879 L 481 880 L 464 880 L 463 879 L 454 879 L 454 881 L 453 882 L 454 883 L 453 884 L 450 884 L 447 881 Z M 514 851 L 515 852 L 515 854 L 514 855 L 513 866 L 512 867 L 511 874 L 510 875 L 508 883 L 506 886 L 506 888 L 498 901 L 488 911 L 485 912 L 484 911 L 487 909 L 497 898 L 503 887 L 503 885 L 505 882 L 505 880 L 509 870 L 509 867 L 511 862 L 511 858 L 512 857 L 512 852 Z M 212 841 L 213 840 L 215 840 L 216 841 L 215 842 L 213 842 Z M 188 845 L 192 843 L 198 843 L 201 840 L 202 841 L 202 843 L 204 845 L 206 845 L 207 846 L 209 846 L 213 842 L 218 842 L 219 843 L 229 845 L 230 846 L 231 853 L 230 854 L 221 853 L 220 852 L 211 851 L 206 849 L 201 849 L 200 848 L 191 847 Z M 208 840 L 209 839 L 212 839 L 213 840 L 212 841 L 209 841 Z M 121 840 L 122 839 L 130 840 L 138 843 L 142 843 L 143 844 L 146 844 L 151 846 L 155 846 L 156 847 L 159 847 L 160 848 L 163 848 L 168 850 L 172 850 L 173 851 L 176 851 L 181 853 L 185 853 L 186 854 L 189 854 L 194 856 L 198 856 L 199 857 L 202 857 L 207 859 L 211 859 L 212 860 L 216 860 L 217 861 L 221 861 L 226 863 L 234 864 L 234 862 L 231 855 L 231 851 L 230 850 L 230 844 L 232 839 L 235 845 L 234 857 L 236 861 L 236 864 L 243 864 L 244 865 L 243 866 L 241 866 L 244 869 L 261 879 L 260 880 L 258 880 L 248 875 L 240 869 L 235 867 L 230 867 L 225 865 L 220 865 L 219 864 L 211 863 L 206 861 L 202 861 L 197 859 L 193 859 L 192 858 L 189 858 L 184 856 L 180 856 L 179 855 L 176 855 L 175 854 L 172 854 L 167 852 L 163 852 L 155 849 L 151 849 L 150 848 L 143 847 L 139 845 L 131 844 L 127 842 L 124 842 Z M 204 839 L 205 838 L 208 838 L 209 839 L 208 840 L 205 840 Z M 835 828 L 823 840 L 812 848 L 805 842 L 806 840 L 809 839 L 814 834 L 820 833 L 826 830 L 829 830 L 833 827 Z M 565 828 L 564 829 L 544 830 L 543 831 L 521 831 L 520 832 L 517 832 L 516 831 L 514 831 L 513 832 L 501 832 L 500 831 L 504 829 L 523 829 L 524 828 L 547 828 L 548 827 L 564 827 Z M 359 826 L 360 827 L 360 851 L 361 852 L 361 859 L 362 860 L 363 871 L 364 872 L 366 882 L 371 893 L 371 895 L 376 902 L 375 904 L 372 901 L 365 889 L 365 887 L 362 881 L 361 874 L 360 873 L 360 869 L 359 868 L 359 864 L 358 863 L 358 854 L 357 853 L 357 833 L 358 832 L 358 827 Z M 139 824 L 140 823 L 146 823 L 147 824 L 150 824 L 155 826 L 159 826 L 160 827 L 163 827 L 168 829 L 172 829 L 173 830 L 177 830 L 178 831 L 181 831 L 186 833 L 200 835 L 202 837 L 201 838 L 197 838 L 196 837 L 187 836 L 186 835 L 183 835 L 178 833 L 174 833 L 173 832 L 170 832 L 169 831 L 166 831 L 161 829 L 157 829 L 156 828 L 153 828 L 148 826 L 144 826 Z M 256 822 L 262 828 L 267 835 L 268 838 L 267 839 L 265 837 L 263 833 L 258 827 L 256 826 L 254 827 L 246 827 L 246 836 L 245 837 L 247 842 L 246 844 L 244 842 L 242 837 L 243 826 L 245 824 L 255 824 Z M 113 826 L 114 825 L 116 825 L 120 820 L 124 820 L 128 822 L 136 823 L 140 826 L 136 831 L 128 830 L 127 829 L 123 829 L 122 828 L 118 828 Z M 633 820 L 634 819 L 637 819 L 638 820 L 637 821 L 634 821 Z M 366 817 L 367 816 L 374 816 L 379 818 L 378 819 L 367 819 Z M 663 815 L 664 816 L 663 817 L 659 817 L 658 818 L 654 818 L 653 819 L 649 819 L 648 820 L 643 820 L 642 821 L 643 822 L 643 831 L 642 832 L 642 842 L 641 843 L 641 847 L 640 848 L 639 856 L 638 857 L 636 865 L 630 877 L 625 883 L 624 881 L 627 877 L 632 867 L 632 865 L 636 855 L 636 852 L 637 851 L 637 847 L 638 846 L 638 842 L 639 841 L 639 819 L 643 817 L 649 817 L 650 816 L 655 816 L 656 815 Z M 663 815 L 664 814 L 666 814 L 667 815 L 666 816 L 664 816 Z M 600 815 L 601 814 L 605 814 L 606 815 L 605 816 L 601 816 Z M 305 815 L 306 814 L 309 814 L 310 815 L 309 816 L 306 816 Z M 605 814 L 606 813 L 612 813 L 613 814 L 612 815 L 606 815 Z M 636 810 L 637 809 L 639 809 L 640 810 L 639 811 L 637 811 Z M 640 809 L 641 808 L 643 808 L 644 809 L 643 810 L 641 810 Z M 647 807 L 648 806 L 650 806 L 651 807 L 650 808 L 648 808 Z M 84 807 L 86 806 L 91 809 L 90 810 L 88 810 Z M 650 806 L 651 805 L 653 805 L 654 806 L 653 807 L 651 807 Z M 189 805 L 191 803 L 194 802 L 195 803 L 199 803 L 204 805 L 214 806 L 215 807 L 220 808 L 224 813 L 230 826 L 233 830 L 233 832 L 234 833 L 231 839 L 228 841 L 227 840 L 223 840 L 222 839 L 218 839 L 217 838 L 209 837 L 207 836 L 205 833 L 202 835 L 201 834 L 201 832 L 206 827 L 207 828 L 206 830 L 209 834 L 213 834 L 214 835 L 219 835 L 220 836 L 225 836 L 226 837 L 228 837 L 230 836 L 231 833 L 226 825 L 226 823 L 219 810 L 211 809 L 212 812 L 220 823 L 219 825 L 211 815 L 208 808 L 202 807 L 201 809 L 199 806 L 192 805 L 191 807 L 196 816 L 200 821 L 201 824 L 204 828 L 203 830 L 200 827 L 195 818 L 193 816 L 192 813 L 189 809 Z M 663 802 L 664 801 L 666 801 L 667 802 L 666 803 L 664 803 Z M 666 801 L 667 800 L 669 800 L 670 801 L 669 802 L 667 802 Z M 669 800 L 670 799 L 673 799 L 674 800 L 673 801 L 670 801 Z M 673 799 L 674 798 L 676 798 L 677 799 L 676 800 L 674 800 Z M 163 798 L 171 810 L 176 820 L 181 827 L 180 828 L 178 827 L 173 818 L 171 816 L 170 813 L 168 811 L 167 808 L 165 806 L 162 800 Z M 677 798 L 678 797 L 680 797 L 681 798 L 680 799 L 678 799 Z M 723 797 L 724 796 L 726 796 L 727 797 L 726 798 L 724 798 Z M 509 797 L 508 798 L 493 798 L 492 799 L 449 799 L 448 798 L 436 798 L 435 797 L 426 797 L 425 796 L 414 796 L 409 794 L 410 793 L 434 793 L 435 792 L 476 791 L 477 790 L 490 790 L 491 789 L 502 789 L 503 788 L 507 788 L 509 792 Z M 519 785 L 520 784 L 521 785 L 523 790 L 527 811 L 563 810 L 564 809 L 577 809 L 578 808 L 588 808 L 589 807 L 595 807 L 596 808 L 595 809 L 582 810 L 581 811 L 575 811 L 574 812 L 565 812 L 564 813 L 556 813 L 555 814 L 545 814 L 544 815 L 525 816 L 523 812 L 522 798 L 521 797 L 521 793 L 520 792 Z M 679 784 L 680 783 L 682 783 L 683 784 L 682 785 L 680 785 Z M 99 783 L 102 783 L 106 785 L 109 785 L 110 786 L 118 787 L 119 788 L 124 789 L 127 793 L 131 802 L 133 804 L 137 812 L 141 816 L 140 818 L 138 816 L 135 820 L 123 817 L 121 815 L 122 814 L 128 814 L 129 815 L 136 815 L 136 814 L 130 806 L 130 804 L 128 802 L 123 791 L 121 790 L 116 790 L 111 788 L 106 788 L 109 795 L 111 797 L 115 805 L 119 809 L 119 814 L 117 815 L 114 811 L 105 792 L 102 790 L 104 787 L 100 785 L 98 786 L 98 790 L 102 790 L 103 791 L 99 793 L 99 794 L 108 812 L 106 814 L 101 814 L 105 819 L 107 819 L 108 818 L 107 816 L 107 814 L 108 813 L 111 816 L 111 823 L 108 826 L 117 836 L 116 837 L 115 837 L 98 819 L 97 814 L 95 812 L 93 812 L 90 810 L 91 809 L 93 809 L 97 811 L 104 811 L 95 793 L 95 787 L 96 785 Z M 827 778 L 826 779 L 819 780 L 815 782 L 804 784 L 800 786 L 797 786 L 796 787 L 793 787 L 792 788 L 789 788 L 788 789 L 777 791 L 773 793 L 770 793 L 769 794 L 766 794 L 765 795 L 755 797 L 756 798 L 756 811 L 755 812 L 754 824 L 750 835 L 750 838 L 753 836 L 757 836 L 758 835 L 761 835 L 762 834 L 770 832 L 771 834 L 766 840 L 753 844 L 759 844 L 760 843 L 764 843 L 768 841 L 770 841 L 771 842 L 765 845 L 757 846 L 750 849 L 743 850 L 739 856 L 731 864 L 730 863 L 739 851 L 746 837 L 746 835 L 749 828 L 750 821 L 751 820 L 751 815 L 752 814 L 752 795 L 754 793 L 764 792 L 765 791 L 768 791 L 769 790 L 772 790 L 773 789 L 776 789 L 781 787 L 785 787 L 786 786 L 793 785 L 801 782 L 809 781 L 817 778 L 821 778 L 822 777 L 826 777 Z M 826 777 L 827 776 L 829 776 L 830 777 L 829 778 L 827 778 Z M 632 774 L 633 773 L 635 775 L 638 781 L 638 783 L 640 787 L 640 790 L 641 791 L 648 790 L 649 789 L 653 789 L 654 788 L 664 787 L 665 786 L 669 786 L 670 785 L 674 785 L 675 784 L 679 784 L 680 785 L 672 788 L 668 788 L 667 789 L 664 789 L 663 790 L 660 790 L 659 791 L 656 791 L 655 792 L 652 792 L 647 794 L 641 794 L 639 795 L 638 794 L 637 786 Z M 305 769 L 306 768 L 308 768 L 309 769 L 308 770 L 306 770 Z M 308 768 L 309 767 L 311 767 L 312 768 L 311 769 L 309 769 Z M 850 766 L 846 768 L 843 768 L 842 769 L 836 770 L 832 772 L 829 772 L 825 774 L 822 774 L 814 777 L 811 777 L 810 778 L 795 781 L 791 783 L 788 783 L 787 784 L 772 787 L 768 789 L 765 789 L 764 790 L 761 790 L 756 792 L 752 792 L 751 793 L 749 793 L 748 792 L 749 790 L 751 790 L 752 789 L 756 789 L 757 788 L 764 787 L 768 785 L 779 783 L 783 781 L 787 781 L 788 780 L 791 780 L 792 779 L 795 779 L 796 778 L 811 775 L 815 773 L 826 771 L 830 769 L 833 769 L 834 768 L 837 768 L 838 767 L 841 767 L 846 765 L 849 765 Z M 734 764 L 740 780 L 740 784 L 739 785 L 736 785 L 735 786 L 732 786 L 727 788 L 723 788 L 722 789 L 718 789 L 717 790 L 713 790 L 712 791 L 709 791 L 708 792 L 705 792 L 704 793 L 701 793 L 700 794 L 697 794 L 696 795 L 693 795 L 692 796 L 689 796 L 684 798 L 681 798 L 680 797 L 691 793 L 694 793 L 695 792 L 698 792 L 699 791 L 702 791 L 703 790 L 706 790 L 707 789 L 710 789 L 711 788 L 714 788 L 715 787 L 718 787 L 726 784 L 736 782 L 737 781 L 736 780 L 736 777 L 734 773 L 733 767 L 731 764 L 732 763 Z M 309 816 L 316 815 L 362 821 L 361 810 L 365 787 L 370 774 L 379 762 L 380 764 L 374 772 L 370 782 L 365 806 L 364 821 L 449 826 L 540 824 L 610 818 L 670 808 L 718 797 L 724 798 L 676 810 L 625 819 L 566 825 L 511 828 L 453 829 L 387 826 L 328 820 Z M 194 763 L 195 762 L 201 762 L 202 763 L 206 763 L 207 764 L 212 764 L 213 765 L 218 765 L 219 766 L 226 767 L 228 769 L 228 786 L 226 789 L 223 789 L 222 788 L 217 788 L 216 787 L 211 787 L 210 786 L 205 786 L 204 785 L 197 784 L 194 781 Z M 335 762 L 332 764 L 329 764 L 328 765 L 325 765 L 320 767 L 316 767 L 315 768 L 312 768 L 311 767 L 315 765 L 318 765 L 323 763 L 327 763 L 331 761 L 334 761 Z M 489 749 L 493 750 L 496 752 L 505 761 L 513 776 L 514 782 L 515 783 L 515 787 L 516 788 L 516 792 L 517 793 L 517 798 L 518 799 L 518 822 L 517 823 L 516 822 L 516 815 L 515 814 L 514 794 L 513 793 L 513 789 L 512 788 L 510 777 L 505 766 L 501 760 L 496 755 L 490 752 L 488 750 Z M 251 748 L 252 747 L 255 747 L 256 748 L 255 749 L 252 749 Z M 285 746 L 286 745 L 291 745 L 292 746 L 291 747 L 286 747 Z M 896 743 L 897 744 L 897 747 L 896 748 L 895 747 L 895 744 Z M 120 743 L 121 742 L 124 742 L 125 743 L 124 744 L 121 744 Z M 115 742 L 116 741 L 120 741 L 121 742 L 120 743 L 116 743 Z M 949 741 L 943 744 L 940 744 L 939 745 L 936 745 L 935 746 L 920 749 L 916 751 L 913 751 L 912 752 L 909 752 L 904 754 L 900 754 L 899 755 L 892 756 L 888 758 L 885 758 L 884 759 L 881 759 L 880 760 L 877 760 L 876 761 L 873 761 L 872 762 L 869 762 L 864 764 L 860 764 L 859 765 L 855 765 L 854 764 L 861 761 L 864 761 L 865 760 L 868 760 L 869 759 L 872 759 L 873 758 L 888 755 L 891 753 L 897 753 L 898 752 L 905 751 L 909 749 L 912 749 L 913 748 L 928 745 L 932 743 L 935 743 L 936 742 L 939 742 L 944 740 L 948 740 Z M 72 741 L 73 740 L 78 740 L 79 741 L 83 741 L 88 743 L 101 744 L 103 747 L 103 761 L 102 762 L 100 760 L 101 759 L 100 757 L 100 747 L 99 747 L 99 759 L 101 763 L 99 765 L 96 765 L 91 763 L 86 763 L 85 762 L 80 762 L 79 761 L 74 760 L 72 758 Z M 968 740 L 961 743 L 958 743 L 954 745 L 943 747 L 939 749 L 939 760 L 938 761 L 938 765 L 935 771 L 935 773 L 932 777 L 931 776 L 931 774 L 933 771 L 933 769 L 935 765 L 935 761 L 936 760 L 936 749 L 931 751 L 924 752 L 923 753 L 919 753 L 918 754 L 911 755 L 910 756 L 906 756 L 905 755 L 908 753 L 915 752 L 919 750 L 922 750 L 923 749 L 926 749 L 931 747 L 935 747 L 939 745 L 942 745 L 943 744 L 946 744 L 947 743 L 950 743 L 955 741 L 959 741 L 964 739 L 967 739 Z M 894 739 L 896 741 L 896 743 L 895 744 L 893 741 Z M 575 740 L 574 741 L 569 741 L 568 742 L 550 743 L 549 744 L 542 744 L 541 745 L 534 745 L 533 746 L 505 747 L 504 748 L 495 748 L 494 749 L 489 749 L 488 750 L 486 749 L 486 748 L 489 746 L 499 745 L 500 744 L 529 743 L 530 742 L 535 742 L 536 741 L 560 740 L 561 739 L 574 739 Z M 363 740 L 362 741 L 354 741 L 353 742 L 331 743 L 330 744 L 318 744 L 317 745 L 307 745 L 306 746 L 293 746 L 292 745 L 293 744 L 316 743 L 317 742 L 338 741 L 339 740 L 350 740 L 351 739 L 362 739 Z M 104 740 L 105 739 L 110 739 L 111 740 L 115 740 L 116 741 L 115 742 L 110 742 L 109 741 L 105 741 Z M 30 740 L 31 739 L 37 747 L 54 756 L 53 757 L 48 756 L 38 751 L 36 749 L 34 749 L 31 744 Z M 848 754 L 848 756 L 846 758 L 838 759 L 837 760 L 834 760 L 833 761 L 830 761 L 829 762 L 826 762 L 821 764 L 817 764 L 816 765 L 813 765 L 812 766 L 809 766 L 804 768 L 800 768 L 799 769 L 796 769 L 795 770 L 792 770 L 791 771 L 788 771 L 787 772 L 784 772 L 783 773 L 780 773 L 779 774 L 776 774 L 775 775 L 772 775 L 771 776 L 768 776 L 767 777 L 764 777 L 759 779 L 755 779 L 754 780 L 752 780 L 751 779 L 754 777 L 757 777 L 761 775 L 764 775 L 772 772 L 779 771 L 783 769 L 794 767 L 798 765 L 801 765 L 809 762 L 820 760 L 821 759 L 831 757 L 835 755 L 843 754 L 844 752 L 840 744 L 841 742 L 840 739 L 841 738 L 844 742 L 844 745 L 846 748 L 846 750 Z M 276 738 L 278 738 L 280 740 L 278 743 L 274 740 Z M 913 740 L 912 742 L 906 743 L 905 744 L 901 744 L 900 745 L 899 745 L 896 741 L 897 739 L 907 737 L 910 735 L 912 737 L 912 739 Z M 68 733 L 69 734 L 69 748 L 68 749 L 67 748 L 67 734 Z M 37 732 L 38 733 L 38 736 L 37 737 L 36 736 L 36 733 Z M 847 730 L 848 729 L 850 731 L 855 741 L 859 741 L 860 740 L 868 739 L 869 738 L 877 737 L 878 736 L 881 736 L 882 737 L 881 738 L 871 740 L 867 742 L 864 742 L 859 744 L 854 744 L 852 742 L 852 740 Z M 504 729 L 503 731 L 488 731 L 487 730 L 488 729 L 497 729 L 498 728 L 503 728 Z M 38 728 L 39 729 L 39 731 L 38 732 L 37 731 L 37 729 Z M 474 728 L 475 727 L 479 727 L 480 728 L 479 729 L 475 729 Z M 84 724 L 86 723 L 91 725 L 96 725 L 97 726 L 108 727 L 109 728 L 112 728 L 115 724 L 116 726 L 114 731 L 109 731 L 108 730 L 103 730 L 102 729 L 98 729 L 97 728 L 89 727 L 88 726 L 86 726 Z M 965 726 L 961 729 L 958 729 L 954 731 L 950 731 L 947 726 L 949 723 L 952 725 L 960 722 L 962 722 Z M 669 722 L 670 723 L 667 725 L 664 725 L 659 727 L 655 727 L 654 728 L 650 728 L 649 729 L 641 730 L 640 731 L 636 731 L 635 732 L 618 734 L 617 735 L 613 735 L 612 736 L 604 736 L 603 737 L 593 737 L 592 738 L 587 738 L 587 739 L 591 739 L 592 740 L 597 741 L 607 747 L 617 757 L 622 766 L 624 768 L 629 779 L 629 782 L 632 790 L 633 801 L 634 802 L 634 811 L 632 813 L 631 812 L 628 812 L 627 813 L 621 813 L 620 814 L 613 814 L 612 813 L 613 812 L 618 812 L 619 811 L 623 811 L 624 810 L 631 809 L 629 794 L 628 793 L 628 790 L 627 789 L 625 781 L 618 766 L 612 757 L 601 747 L 591 742 L 584 741 L 583 740 L 583 738 L 586 736 L 588 736 L 592 734 L 595 734 L 596 733 L 600 733 L 601 732 L 607 732 L 608 731 L 621 731 L 622 730 L 635 729 L 636 728 L 640 728 L 641 727 L 645 727 L 646 726 L 650 726 L 651 725 L 655 725 L 656 724 L 660 724 L 661 723 Z M 518 723 L 519 722 L 523 722 L 524 723 L 523 724 L 519 724 Z M 130 723 L 128 726 L 125 726 L 124 725 L 129 722 Z M 523 722 L 524 721 L 529 721 L 530 722 L 529 723 L 524 723 Z M 966 719 L 968 719 L 969 718 L 972 722 L 972 725 L 971 726 L 968 726 L 965 722 L 965 720 Z M 681 718 L 693 720 L 694 721 L 702 723 L 710 727 L 720 734 L 728 742 L 736 753 L 742 767 L 743 775 L 744 776 L 744 780 L 745 781 L 745 790 L 743 792 L 742 791 L 741 781 L 740 780 L 740 777 L 739 776 L 737 768 L 730 753 L 724 744 L 714 734 L 708 730 L 689 722 L 680 721 L 679 720 Z M 544 719 L 541 721 L 537 721 L 536 722 L 530 722 L 529 721 L 530 720 L 539 719 L 540 718 L 543 718 Z M 284 715 L 287 718 L 283 721 L 281 719 L 281 717 Z M 46 715 L 47 717 L 44 720 L 43 718 Z M 1061 715 L 1060 717 L 1056 717 L 1055 718 L 1051 718 L 1050 719 L 1046 719 L 1045 718 L 1046 717 L 1056 715 L 1057 714 L 1060 714 Z M 1011 714 L 1012 713 L 1014 713 L 1015 714 L 1014 715 L 1012 715 Z M 515 712 L 518 712 L 520 715 L 517 718 L 513 715 Z M 236 712 L 237 713 L 240 713 L 242 716 L 241 717 L 240 723 L 238 726 L 238 728 L 233 739 L 233 744 L 232 745 L 230 741 L 229 742 L 217 741 L 215 738 L 226 715 L 229 712 Z M 490 711 L 493 711 L 495 713 L 495 717 L 493 719 L 489 718 L 487 715 Z M 203 710 L 206 713 L 206 716 L 205 717 L 203 713 L 198 713 L 196 715 L 194 720 L 195 723 L 198 724 L 200 726 L 199 727 L 197 727 L 192 725 L 191 724 L 191 718 L 193 713 L 197 710 Z M 184 710 L 187 712 L 187 715 L 184 722 L 182 723 L 180 721 L 180 716 L 181 715 L 181 712 Z M 35 710 L 36 711 L 36 713 L 35 714 L 36 731 L 35 732 L 32 727 L 32 716 L 33 715 L 33 712 Z M 301 709 L 300 710 L 296 710 L 292 712 L 286 712 L 284 710 L 285 709 L 294 709 L 295 708 L 300 708 Z M 173 708 L 176 711 L 175 712 L 174 719 L 171 721 L 169 719 L 169 714 L 170 713 L 170 711 Z M 1092 708 L 1081 712 L 1065 715 L 1064 716 L 1064 723 L 1063 724 L 1063 726 L 1062 727 L 1061 726 L 1061 721 L 1062 720 L 1062 716 L 1061 714 L 1062 713 L 1065 713 L 1066 712 L 1069 712 L 1074 710 L 1078 710 L 1079 709 L 1082 709 L 1087 707 L 1091 707 Z M 552 707 L 555 707 L 557 710 L 554 713 L 553 713 L 550 709 Z M 301 708 L 302 707 L 306 707 L 307 708 L 306 709 L 302 709 Z M 162 706 L 165 709 L 165 711 L 163 716 L 161 718 L 159 718 L 158 717 L 158 712 L 159 711 L 159 709 Z M 262 705 L 263 706 L 262 707 L 258 708 L 255 710 L 252 710 L 252 713 L 247 724 L 247 726 L 245 729 L 244 734 L 241 739 L 241 741 L 237 747 L 236 746 L 236 744 L 239 739 L 239 737 L 241 734 L 242 729 L 244 726 L 244 724 L 246 721 L 246 719 L 250 709 L 252 707 L 256 707 L 257 706 Z M 102 709 L 105 705 L 106 706 L 106 713 L 108 714 L 114 714 L 118 710 L 119 712 L 113 717 L 107 717 L 102 713 Z M 151 704 L 154 707 L 153 708 L 152 714 L 149 717 L 147 715 L 147 710 L 149 705 Z M 139 702 L 141 704 L 142 708 L 138 715 L 136 715 L 134 713 L 134 711 L 137 704 Z M 652 701 L 649 703 L 641 704 L 640 705 L 636 705 L 635 706 L 631 706 L 630 707 L 626 707 L 625 708 L 621 708 L 620 709 L 616 709 L 615 708 L 618 706 L 622 706 L 623 705 L 627 705 L 628 704 L 632 704 L 633 703 L 638 703 L 639 702 L 643 702 L 644 701 L 648 701 L 649 700 L 651 700 Z M 1111 699 L 1110 700 L 1100 702 L 1096 704 L 1093 704 L 1092 705 L 1077 708 L 1073 710 L 1070 710 L 1069 711 L 1066 711 L 1065 712 L 1062 712 L 1061 713 L 1046 716 L 1042 718 L 1038 718 L 1037 719 L 1022 722 L 1018 724 L 1010 725 L 1006 727 L 991 730 L 987 732 L 984 732 L 983 733 L 980 733 L 979 734 L 976 734 L 975 735 L 972 735 L 967 737 L 963 737 L 962 738 L 959 738 L 958 737 L 962 735 L 965 735 L 969 733 L 976 732 L 980 730 L 983 730 L 984 729 L 987 729 L 988 728 L 991 728 L 992 727 L 995 727 L 996 726 L 999 726 L 1000 725 L 1003 725 L 1004 724 L 1019 721 L 1023 719 L 1026 719 L 1027 718 L 1030 718 L 1031 717 L 1034 717 L 1035 716 L 1038 716 L 1039 715 L 1042 715 L 1043 714 L 1046 714 L 1047 713 L 1050 713 L 1051 712 L 1054 712 L 1059 710 L 1063 710 L 1067 708 L 1070 708 L 1071 707 L 1074 707 L 1075 706 L 1078 706 L 1079 705 L 1082 705 L 1083 704 L 1086 704 L 1087 703 L 1090 703 L 1091 702 L 1094 702 L 1095 701 L 1098 701 L 1099 700 L 1102 700 L 1107 698 L 1110 698 Z M 786 699 L 783 701 L 780 701 L 779 702 L 775 702 L 774 703 L 771 703 L 766 705 L 762 705 L 761 706 L 747 708 L 746 709 L 738 710 L 737 711 L 733 711 L 732 712 L 727 712 L 726 713 L 716 714 L 715 715 L 710 715 L 709 716 L 705 716 L 704 715 L 712 712 L 717 712 L 718 711 L 722 711 L 723 710 L 727 710 L 728 709 L 742 707 L 747 705 L 751 705 L 752 704 L 756 704 L 757 703 L 761 703 L 762 702 L 766 702 L 767 701 L 771 701 L 772 700 L 776 700 L 777 699 L 781 699 L 782 698 L 785 698 Z M 607 697 L 610 699 L 610 702 L 609 703 L 606 703 L 605 702 L 605 699 Z M 793 695 L 803 696 L 818 703 L 826 709 L 833 716 L 841 727 L 846 736 L 846 738 L 850 746 L 850 750 L 852 755 L 852 760 L 851 761 L 850 760 L 849 754 L 848 753 L 846 745 L 844 742 L 844 740 L 838 728 L 832 719 L 819 707 L 806 700 L 800 699 L 799 698 L 795 698 L 792 696 Z M 697 696 L 696 698 L 690 699 L 686 702 L 684 702 L 678 698 L 681 696 L 682 697 L 684 697 L 685 696 L 689 696 L 694 694 Z M 810 692 L 811 691 L 813 691 L 814 692 L 813 693 L 811 693 Z M 712 693 L 715 691 L 719 691 L 720 692 L 724 692 L 725 694 L 724 695 L 714 695 Z M 814 691 L 815 690 L 818 690 L 819 691 L 818 692 L 815 692 Z M 465 710 L 465 717 L 461 722 L 456 723 L 455 724 L 448 724 L 447 725 L 440 725 L 439 726 L 432 726 L 431 727 L 413 728 L 412 729 L 395 730 L 394 731 L 387 731 L 386 732 L 368 733 L 367 734 L 358 734 L 357 735 L 339 736 L 338 737 L 328 737 L 327 738 L 318 738 L 317 739 L 304 739 L 296 732 L 296 730 L 295 729 L 295 726 L 296 725 L 297 720 L 300 716 L 304 713 L 313 712 L 314 711 L 319 711 L 320 710 L 332 709 L 333 708 L 338 708 L 339 707 L 344 707 L 345 706 L 351 706 L 352 705 L 357 705 L 358 704 L 364 704 L 365 703 L 371 703 L 372 702 L 383 701 L 384 700 L 388 700 L 389 699 L 394 699 L 395 698 L 405 697 L 406 696 L 410 696 L 411 695 L 415 695 L 416 694 L 421 694 L 422 693 L 427 693 L 428 692 L 438 691 L 439 690 L 443 690 L 450 694 Z M 124 692 L 125 693 L 123 695 L 116 695 L 116 696 L 118 697 L 118 699 L 120 703 L 119 705 L 116 703 L 116 700 L 113 697 L 107 697 L 99 714 L 99 717 L 105 721 L 103 723 L 96 722 L 94 720 L 94 717 L 100 705 L 100 703 L 104 695 L 106 693 L 106 691 L 107 690 L 113 690 L 114 691 L 118 691 L 119 692 Z M 1050 690 L 1053 698 L 1053 701 L 1054 702 L 1054 704 L 1052 706 L 1044 707 L 1043 708 L 1040 708 L 1039 709 L 1036 709 L 1035 710 L 1032 710 L 1031 711 L 1028 711 L 1027 712 L 1024 712 L 1019 714 L 1015 714 L 1014 713 L 1021 710 L 1024 710 L 1025 709 L 1032 708 L 1036 706 L 1043 705 L 1047 703 L 1050 703 L 1051 701 L 1049 698 L 1049 694 L 1048 693 L 1048 690 L 1049 689 Z M 669 684 L 672 686 L 672 689 L 670 691 L 667 689 L 667 686 Z M 1181 685 L 1180 687 L 1180 691 L 1178 695 L 1177 694 L 1178 686 L 1175 686 L 1174 687 L 1171 687 L 1166 689 L 1163 689 L 1162 688 L 1165 686 L 1175 684 L 1176 683 L 1179 683 Z M 95 684 L 96 683 L 99 686 L 97 687 Z M 483 682 L 485 682 L 488 685 L 485 688 L 481 685 Z M 1178 681 L 1176 683 L 1170 684 L 1166 686 L 1163 686 L 1159 688 L 1155 688 L 1151 690 L 1148 690 L 1147 691 L 1144 691 L 1143 692 L 1140 692 L 1139 693 L 1136 693 L 1135 694 L 1132 694 L 1131 695 L 1128 695 L 1127 696 L 1124 696 L 1119 698 L 1116 698 L 1115 697 L 1119 695 L 1122 695 L 1130 692 L 1145 689 L 1146 688 L 1156 686 L 1160 684 L 1163 684 L 1164 683 L 1167 683 L 1168 682 L 1171 682 L 1176 680 Z M 864 681 L 861 683 L 857 683 L 856 684 L 853 684 L 852 685 L 849 685 L 844 687 L 840 687 L 839 688 L 835 688 L 834 689 L 830 689 L 825 691 L 820 691 L 819 690 L 820 689 L 823 689 L 824 688 L 827 688 L 832 686 L 836 686 L 841 684 L 845 684 L 846 683 L 850 683 L 851 682 L 855 682 L 856 681 L 860 681 L 861 680 L 863 680 Z M 506 679 L 508 679 L 510 682 L 507 685 L 503 682 Z M 283 682 L 287 679 L 289 680 L 292 684 L 290 686 L 286 686 Z M 736 681 L 734 684 L 728 685 L 727 686 L 722 686 L 721 687 L 707 689 L 702 691 L 691 692 L 690 693 L 686 693 L 685 694 L 676 695 L 675 696 L 670 696 L 669 697 L 667 697 L 666 696 L 667 694 L 676 693 L 681 691 L 686 691 L 687 690 L 696 689 L 701 687 L 706 687 L 707 686 L 711 686 L 712 685 L 716 685 L 717 684 L 722 684 L 723 683 L 732 682 L 734 678 Z M 499 678 L 501 682 L 501 686 L 500 687 L 498 682 L 498 679 Z M 235 681 L 235 682 L 232 684 L 228 684 L 226 687 L 221 687 L 220 686 L 221 684 L 230 678 L 232 678 Z M 870 677 L 883 678 L 884 679 L 887 679 L 890 681 L 892 681 L 902 686 L 910 692 L 919 701 L 924 708 L 930 721 L 930 724 L 932 729 L 932 734 L 933 735 L 933 742 L 931 744 L 929 739 L 928 730 L 929 735 L 926 738 L 918 739 L 917 741 L 915 739 L 915 735 L 914 734 L 915 732 L 917 733 L 917 736 L 918 737 L 921 735 L 926 734 L 925 732 L 925 728 L 920 716 L 921 714 L 924 718 L 927 728 L 925 720 L 916 704 L 903 691 L 897 688 L 895 686 L 891 684 L 889 684 L 885 682 L 882 682 L 881 681 L 878 681 L 877 680 L 870 680 L 869 679 Z M 184 677 L 185 676 L 188 678 L 191 678 L 192 679 L 191 680 L 187 680 L 185 679 Z M 1202 676 L 1203 675 L 1205 675 L 1206 676 L 1205 677 L 1203 677 Z M 1052 676 L 1053 675 L 1055 678 L 1054 679 Z M 712 675 L 713 675 L 715 678 L 715 680 L 714 681 L 711 681 L 709 678 Z M 256 675 L 257 675 L 259 678 L 259 686 L 257 689 L 256 688 L 256 684 L 249 680 Z M 1191 675 L 1192 674 L 1194 674 L 1195 675 L 1194 676 L 1192 676 Z M 719 675 L 723 673 L 725 675 L 725 678 L 724 679 L 721 679 L 719 677 Z M 183 675 L 184 673 L 187 673 L 188 674 L 186 676 L 184 676 Z M 1204 672 L 1198 675 L 1195 675 L 1194 674 L 1201 671 L 1203 671 Z M 1109 673 L 1110 671 L 1111 672 L 1115 672 L 1116 671 L 1121 671 L 1122 672 L 1121 673 L 1117 673 L 1112 675 Z M 537 671 L 540 673 L 540 675 L 539 676 L 536 676 L 535 675 L 535 673 Z M 458 673 L 460 671 L 465 671 L 467 674 L 465 676 L 462 677 L 460 676 Z M 200 673 L 198 674 L 198 676 L 197 677 L 192 677 L 190 678 L 188 676 L 193 671 L 197 671 Z M 1203 671 L 1204 670 L 1206 670 L 1207 671 L 1206 672 L 1204 672 Z M 151 670 L 152 669 L 154 669 L 155 670 L 154 671 L 155 670 L 156 672 L 152 674 L 151 673 Z M 142 676 L 149 669 L 150 669 L 151 670 L 146 675 L 146 676 L 152 677 L 156 679 L 155 680 L 150 680 L 149 679 L 143 678 Z M 550 668 L 552 670 L 552 673 L 551 674 L 549 670 Z M 86 668 L 88 670 L 88 674 L 94 690 L 94 694 L 86 709 L 83 712 L 81 710 L 77 702 L 77 700 L 74 693 L 74 690 L 73 689 L 73 685 L 76 680 Z M 659 667 L 660 668 L 661 683 L 663 687 L 663 689 L 662 690 L 660 689 L 661 688 L 660 686 L 658 685 L 658 668 Z M 327 670 L 331 667 L 335 669 L 336 671 L 335 672 L 331 672 Z M 253 668 L 243 677 L 241 676 L 251 667 Z M 1171 668 L 1172 674 L 1169 676 L 1159 678 L 1158 679 L 1155 679 L 1154 680 L 1150 680 L 1149 681 L 1146 681 L 1145 682 L 1142 682 L 1137 684 L 1134 684 L 1133 683 L 1134 682 L 1136 682 L 1140 680 L 1143 680 L 1147 678 L 1150 678 L 1158 675 L 1169 673 L 1168 667 L 1169 666 Z M 524 676 L 525 674 L 532 668 L 542 667 L 543 666 L 548 666 L 550 668 L 549 669 L 543 669 L 542 670 L 531 671 L 528 674 L 531 678 L 530 679 L 526 678 L 534 707 L 539 710 L 544 710 L 550 715 L 555 715 L 556 714 L 561 714 L 562 713 L 579 711 L 580 710 L 584 710 L 585 709 L 591 709 L 592 708 L 596 708 L 597 707 L 610 706 L 613 703 L 613 700 L 612 699 L 612 696 L 611 695 L 611 692 L 609 687 L 609 683 L 608 682 L 608 677 L 607 676 L 609 674 L 611 676 L 611 678 L 612 679 L 612 684 L 613 685 L 613 688 L 614 689 L 614 692 L 616 697 L 616 703 L 611 709 L 606 709 L 605 710 L 593 711 L 592 712 L 582 713 L 581 714 L 576 714 L 575 715 L 570 715 L 569 716 L 563 716 L 562 717 L 551 718 L 545 714 L 542 714 L 535 711 L 531 707 L 530 702 L 529 701 L 529 698 L 528 697 L 528 694 L 526 690 L 526 687 L 524 683 Z M 1108 675 L 1108 676 L 1105 678 L 1098 679 L 1094 681 L 1090 681 L 1086 683 L 1075 685 L 1074 686 L 1064 688 L 1063 689 L 1059 689 L 1057 687 L 1057 685 L 1055 682 L 1056 680 L 1058 682 L 1059 686 L 1064 686 L 1065 685 L 1075 683 L 1079 681 L 1082 681 L 1083 680 L 1086 680 L 1087 679 L 1090 679 L 1091 678 L 1094 678 L 1099 676 L 1103 676 L 1105 675 L 1099 668 L 1099 666 L 1100 665 L 1103 667 Z M 749 665 L 751 668 L 751 672 L 748 675 L 747 674 L 748 672 L 748 668 L 747 666 Z M 565 668 L 570 664 L 576 667 L 573 669 L 566 669 Z M 189 667 L 192 664 L 205 664 L 206 665 L 212 665 L 213 666 L 215 666 L 217 668 L 217 671 L 215 673 L 214 672 L 214 669 L 212 668 L 206 668 L 205 670 L 203 671 L 202 670 L 202 668 L 193 667 L 190 669 Z M 945 664 L 941 666 L 938 666 L 937 667 L 934 667 L 929 669 L 925 669 L 920 671 L 916 671 L 915 672 L 911 672 L 910 673 L 906 673 L 905 674 L 901 674 L 900 675 L 896 675 L 895 676 L 891 676 L 890 677 L 886 677 L 885 676 L 886 675 L 889 675 L 890 674 L 893 674 L 898 672 L 902 672 L 907 670 L 911 670 L 916 668 L 920 668 L 921 667 L 925 667 L 926 666 L 930 666 L 931 665 L 935 665 L 936 664 L 940 664 L 941 663 L 944 663 Z M 544 664 L 545 663 L 547 663 L 549 665 L 547 666 Z M 159 668 L 159 667 L 164 663 L 172 663 L 173 662 L 185 662 L 186 663 L 185 664 L 170 665 L 169 666 L 165 665 L 160 669 Z M 589 661 L 591 660 L 595 663 L 592 665 Z M 488 663 L 490 661 L 494 660 L 500 664 L 498 666 L 495 667 L 490 665 Z M 343 660 L 347 663 L 347 665 L 342 669 L 337 665 Z M 960 660 L 961 659 L 963 659 L 964 660 L 963 661 L 961 661 Z M 723 659 L 729 667 L 731 671 L 730 673 L 722 661 Z M 410 661 L 412 659 L 415 659 L 417 662 L 415 664 L 412 664 Z M 590 660 L 588 661 L 585 659 L 583 659 L 582 660 L 577 660 L 576 661 L 573 661 L 568 663 L 557 664 L 556 665 L 554 665 L 551 662 L 555 660 L 559 660 L 564 658 L 576 658 L 577 657 L 586 657 Z M 978 657 L 977 658 L 974 658 L 969 660 L 965 660 L 964 659 L 965 658 L 968 658 L 973 656 L 977 656 Z M 720 657 L 721 656 L 723 659 L 722 660 Z M 96 656 L 98 658 L 97 660 L 95 660 L 94 659 Z M 977 656 L 978 655 L 980 655 L 981 656 L 980 657 L 978 657 Z M 659 666 L 658 667 L 647 668 L 646 669 L 642 669 L 641 670 L 637 670 L 636 671 L 631 671 L 630 672 L 620 673 L 619 674 L 612 674 L 611 675 L 602 666 L 600 667 L 598 665 L 600 663 L 602 663 L 603 662 L 608 662 L 609 661 L 613 661 L 614 660 L 619 660 L 620 659 L 632 658 L 633 657 L 647 655 L 655 661 L 659 665 Z M 567 656 L 568 655 L 572 655 L 573 656 L 572 657 L 568 657 Z M 529 656 L 530 655 L 532 655 L 534 657 L 533 658 L 530 658 Z M 443 656 L 444 655 L 446 655 L 447 656 L 446 657 L 444 657 Z M 118 656 L 119 655 L 122 655 L 124 657 L 121 659 L 119 658 Z M 561 655 L 561 656 L 558 658 L 550 659 L 544 662 L 541 662 L 522 669 L 519 669 L 508 673 L 501 674 L 499 675 L 499 678 L 498 679 L 497 678 L 496 673 L 492 670 L 482 668 L 478 666 L 470 665 L 469 664 L 463 663 L 459 661 L 456 661 L 446 657 L 447 656 L 450 656 L 458 659 L 461 659 L 462 660 L 477 663 L 481 665 L 484 665 L 491 668 L 500 669 L 501 668 L 511 667 L 512 666 L 516 666 L 521 664 L 525 664 L 529 662 L 533 662 L 534 661 L 541 660 L 553 655 L 557 655 L 558 654 L 560 654 Z M 871 654 L 872 653 L 874 653 L 875 654 L 874 655 L 872 655 Z M 874 653 L 875 652 L 879 652 L 880 653 L 879 654 L 875 654 Z M 998 651 L 999 650 L 1007 650 L 1008 651 L 1012 651 L 1029 658 L 1037 664 L 1046 674 L 1053 686 L 1053 688 L 1055 691 L 1055 693 L 1057 697 L 1057 700 L 1058 701 L 1058 710 L 1057 711 L 1055 710 L 1054 700 L 1053 699 L 1053 696 L 1049 686 L 1047 684 L 1046 681 L 1040 672 L 1032 664 L 1020 657 L 1018 657 L 1008 653 L 1002 653 Z M 301 650 L 302 652 L 299 654 L 298 653 Z M 810 650 L 809 651 L 805 651 L 804 652 L 800 652 L 799 653 L 795 653 L 794 654 L 790 654 L 789 655 L 785 655 L 784 656 L 770 658 L 769 659 L 766 659 L 765 660 L 762 660 L 757 662 L 748 662 L 747 661 L 748 660 L 755 660 L 760 658 L 764 658 L 769 656 L 773 656 L 774 655 L 778 655 L 779 654 L 783 654 L 784 653 L 788 653 L 789 652 L 793 652 L 794 651 L 798 651 L 799 650 L 803 650 L 804 649 L 809 649 Z M 732 649 L 734 650 L 734 653 L 736 656 L 739 652 L 741 653 L 739 656 L 740 659 L 739 660 L 737 658 L 738 659 L 738 661 L 741 664 L 743 665 L 745 664 L 746 665 L 744 667 L 741 667 L 737 664 L 735 659 L 731 654 L 731 650 Z M 435 651 L 437 649 L 441 649 L 443 652 L 440 654 L 438 654 L 436 653 Z M 809 649 L 810 648 L 814 648 L 815 649 L 814 650 L 810 650 Z M 737 649 L 738 648 L 742 648 L 743 650 L 742 651 L 740 651 Z M 610 648 L 614 652 L 614 654 L 615 655 L 614 656 L 611 654 L 609 650 Z M 814 648 L 815 647 L 819 647 L 820 648 L 819 649 L 815 649 Z M 819 647 L 820 646 L 824 646 L 825 647 L 824 648 L 820 648 Z M 875 646 L 876 645 L 878 645 L 879 646 L 879 648 L 877 649 Z M 824 646 L 825 645 L 829 645 L 830 646 L 829 647 L 825 647 Z M 829 645 L 830 644 L 833 644 L 834 645 L 833 646 L 830 646 Z M 312 644 L 313 644 L 319 651 L 316 655 L 313 655 L 308 649 Z M 153 644 L 154 645 L 151 647 L 150 646 Z M 848 643 L 851 645 L 852 650 L 849 653 L 845 653 L 842 650 L 843 649 L 846 651 L 849 650 L 849 647 L 847 644 Z M 833 644 L 834 643 L 838 643 L 839 644 L 838 645 L 834 645 Z M 838 643 L 839 642 L 842 642 L 843 643 L 842 644 L 839 644 Z M 391 642 L 394 645 L 394 648 L 393 649 L 390 649 L 387 647 L 387 646 Z M 156 642 L 157 643 L 154 645 L 153 644 Z M 842 642 L 843 641 L 846 641 L 847 642 L 846 643 L 843 643 Z M 870 650 L 870 654 L 867 656 L 863 656 L 862 657 L 848 659 L 843 661 L 829 663 L 824 665 L 820 665 L 819 666 L 805 668 L 800 670 L 796 670 L 795 671 L 781 673 L 776 675 L 772 675 L 771 676 L 757 678 L 756 679 L 748 680 L 747 681 L 743 681 L 742 680 L 743 678 L 744 679 L 745 678 L 748 678 L 749 677 L 752 677 L 757 675 L 761 675 L 766 673 L 770 673 L 771 672 L 775 672 L 780 670 L 784 670 L 785 669 L 789 669 L 790 668 L 794 668 L 795 667 L 799 667 L 800 666 L 814 664 L 819 662 L 828 661 L 833 659 L 838 659 L 839 658 L 843 658 L 844 657 L 848 657 L 849 656 L 853 656 L 854 655 L 858 655 L 859 654 L 867 653 L 868 652 L 864 644 L 862 642 L 862 640 L 863 639 L 865 641 Z M 948 639 L 943 641 L 938 641 L 937 642 L 923 644 L 918 646 L 904 648 L 903 649 L 895 650 L 894 651 L 890 651 L 889 652 L 885 652 L 884 653 L 880 653 L 879 652 L 880 651 L 883 651 L 888 649 L 892 649 L 893 648 L 901 647 L 902 646 L 905 646 L 910 644 L 914 644 L 915 643 L 920 643 L 925 641 L 930 641 L 931 640 L 941 639 L 942 638 L 947 638 Z M 859 639 L 860 638 L 862 638 L 863 639 L 862 640 L 860 640 Z M 947 638 L 948 637 L 950 637 L 951 638 L 950 639 L 948 639 Z M 606 646 L 604 648 L 594 652 L 590 652 L 589 653 L 580 653 L 579 654 L 574 654 L 573 655 L 570 655 L 569 654 L 569 653 L 576 647 L 581 647 L 583 646 L 585 643 L 597 637 L 599 637 L 603 641 Z M 1065 639 L 1062 641 L 1059 641 L 1054 643 L 1050 643 L 1045 645 L 1041 645 L 1040 646 L 1026 648 L 1025 649 L 1023 649 L 1025 651 L 1024 652 L 1022 652 L 1020 649 L 1016 649 L 1015 648 L 1018 646 L 1022 646 L 1023 645 L 1027 645 L 1032 643 L 1040 642 L 1041 641 L 1041 638 L 1044 636 L 1048 636 L 1049 637 L 1049 639 L 1048 640 L 1052 640 L 1053 639 L 1057 639 L 1058 638 L 1064 638 Z M 750 637 L 751 636 L 759 636 L 760 637 L 759 638 L 751 638 Z M 413 636 L 417 639 L 417 641 L 415 643 L 412 642 L 410 639 Z M 759 636 L 760 635 L 763 635 L 764 636 L 763 637 L 760 637 Z M 701 635 L 702 635 L 706 639 L 703 643 L 702 642 L 700 642 L 698 639 Z M 316 634 L 317 635 L 304 649 L 303 647 L 306 644 L 306 642 L 303 638 L 306 636 L 310 639 L 315 634 Z M 168 633 L 169 634 L 166 636 L 165 635 Z M 862 631 L 860 633 L 855 633 L 854 634 L 850 634 L 849 635 L 845 635 L 844 636 L 840 636 L 839 637 L 834 637 L 833 638 L 829 638 L 828 639 L 824 639 L 823 640 L 819 640 L 818 641 L 814 641 L 813 642 L 809 642 L 808 643 L 803 643 L 802 644 L 788 646 L 787 647 L 779 648 L 778 649 L 774 649 L 773 650 L 769 650 L 768 651 L 763 651 L 763 653 L 760 655 L 758 655 L 755 652 L 756 650 L 758 650 L 759 649 L 764 649 L 769 647 L 773 647 L 774 646 L 782 645 L 783 644 L 787 644 L 788 643 L 792 643 L 793 642 L 798 642 L 799 641 L 803 641 L 804 640 L 808 640 L 809 639 L 813 639 L 814 638 L 818 638 L 819 637 L 823 637 L 824 636 L 828 636 L 829 635 L 833 635 L 834 634 L 839 634 L 840 633 L 844 633 L 845 632 L 849 632 L 850 631 L 854 631 L 855 630 L 861 630 Z M 172 630 L 173 631 L 170 633 L 169 632 Z M 1116 628 L 1112 630 L 1109 630 L 1104 632 L 1100 632 L 1095 634 L 1091 634 L 1090 635 L 1076 636 L 1075 637 L 1069 637 L 1068 636 L 1069 635 L 1073 635 L 1074 634 L 1078 634 L 1079 633 L 1084 633 L 1085 632 L 1089 632 L 1090 631 L 1099 630 L 1100 629 L 1105 629 L 1106 628 L 1110 628 L 1111 627 L 1115 627 Z M 1012 628 L 1013 627 L 1018 627 L 1019 626 L 1021 626 L 1022 627 L 1028 627 L 1029 628 L 1033 628 L 1034 629 L 1033 630 L 1024 630 L 1023 629 L 1013 629 Z M 715 626 L 719 629 L 719 631 L 718 632 L 715 632 L 713 630 L 713 628 Z M 177 626 L 178 627 L 174 630 L 173 629 Z M 1117 626 L 1118 625 L 1123 625 L 1124 626 L 1129 626 L 1130 627 L 1138 628 L 1144 631 L 1146 631 L 1158 638 L 1169 649 L 1174 658 L 1175 665 L 1176 666 L 1176 679 L 1174 681 L 1173 680 L 1173 672 L 1172 671 L 1171 664 L 1165 651 L 1154 639 L 1138 631 L 1128 629 L 1127 628 L 1120 628 Z M 777 625 L 776 626 L 772 626 L 771 627 L 767 627 L 766 628 L 762 628 L 761 629 L 751 630 L 746 632 L 729 634 L 728 635 L 724 635 L 723 636 L 721 635 L 722 633 L 724 633 L 725 632 L 735 631 L 740 629 L 752 628 L 753 627 L 764 626 L 765 625 L 769 625 L 770 624 L 776 624 Z M 776 624 L 777 623 L 781 623 L 782 624 L 781 625 L 777 625 Z M 1113 623 L 1115 622 L 1116 623 L 1116 625 L 1114 626 L 1113 625 Z M 1070 623 L 1071 622 L 1074 622 L 1075 623 L 1074 624 L 1071 624 Z M 1035 623 L 1036 622 L 1040 622 L 1041 623 L 1040 624 L 1036 624 Z M 847 629 L 849 627 L 853 627 L 853 625 L 852 624 L 853 622 L 855 624 L 855 626 L 857 626 L 858 625 L 865 626 L 867 628 L 869 633 L 867 636 L 866 635 L 865 630 L 862 628 L 857 628 L 852 630 L 848 630 Z M 781 623 L 782 622 L 786 622 L 787 623 L 786 624 L 782 624 Z M 506 624 L 510 622 L 513 622 L 514 623 L 512 625 L 507 625 Z M 1131 622 L 1132 621 L 1134 621 L 1135 622 L 1134 623 L 1132 623 Z M 1076 622 L 1077 621 L 1080 621 L 1081 622 L 1080 623 L 1077 623 Z M 835 621 L 836 620 L 839 620 L 842 622 L 840 623 L 843 622 L 844 624 L 843 625 L 839 625 L 836 623 Z M 786 622 L 787 621 L 791 621 L 792 620 L 796 620 L 797 621 L 792 623 L 787 623 Z M 796 620 L 797 619 L 801 619 L 802 620 L 801 621 L 797 621 Z M 1146 619 L 1143 621 L 1140 621 L 1139 622 L 1135 622 L 1134 621 L 1135 620 L 1138 620 L 1143 618 L 1145 618 Z M 801 619 L 802 618 L 804 618 L 805 619 L 804 620 L 802 620 Z M 1169 618 L 1170 617 L 1173 617 L 1174 618 L 1179 619 L 1182 621 L 1184 621 L 1198 630 L 1197 625 L 1193 620 L 1195 619 L 1203 627 L 1203 629 L 1204 630 L 1203 636 L 1206 639 L 1207 642 L 1210 646 L 1210 648 L 1212 652 L 1212 657 L 1211 658 L 1210 657 L 1210 653 L 1205 642 L 1195 631 L 1188 626 L 1178 621 L 1176 621 Z M 1094 618 L 1095 617 L 1098 617 L 1099 618 L 1098 619 L 1095 619 Z M 1092 618 L 1090 621 L 1086 621 L 1085 622 L 1081 622 L 1080 621 L 1085 619 L 1089 619 L 1090 617 Z M 840 616 L 841 615 L 845 615 L 846 616 L 845 617 L 841 617 Z M 529 617 L 532 615 L 535 615 L 537 618 L 536 619 L 531 619 Z M 334 615 L 335 617 L 329 623 L 328 621 Z M 558 615 L 559 614 L 560 615 L 565 616 L 582 624 L 587 624 L 590 622 L 593 622 L 594 620 L 597 620 L 598 622 L 596 624 L 593 624 L 590 626 L 584 627 L 578 624 L 576 624 L 571 621 L 569 621 L 566 619 L 559 617 Z M 976 613 L 982 621 L 980 623 L 977 623 L 974 619 L 974 617 Z M 197 613 L 181 626 L 179 627 L 177 626 L 195 612 Z M 1149 608 L 1153 611 L 1153 613 L 1150 617 L 1148 616 L 1149 615 L 1149 611 L 1148 610 Z M 558 608 L 560 608 L 561 609 L 561 612 L 560 613 L 556 610 Z M 352 605 L 356 608 L 356 610 L 354 612 L 351 612 L 349 609 Z M 834 604 L 838 607 L 836 610 L 834 610 L 832 608 L 832 606 Z M 694 630 L 693 637 L 689 642 L 679 643 L 678 644 L 673 644 L 672 645 L 667 645 L 666 646 L 661 646 L 660 647 L 655 647 L 654 648 L 650 648 L 649 649 L 640 649 L 636 647 L 629 647 L 628 648 L 623 648 L 622 649 L 613 648 L 608 644 L 604 637 L 605 635 L 607 635 L 615 629 L 617 629 L 629 623 L 631 621 L 638 618 L 647 612 L 649 612 L 652 610 L 659 608 L 669 603 L 671 603 L 673 605 L 679 608 L 686 615 Z M 961 604 L 962 603 L 964 603 L 964 602 L 967 600 L 969 601 L 972 605 L 971 606 L 967 606 L 966 605 L 962 605 Z M 1108 600 L 1101 603 L 1098 603 L 1097 602 L 1100 600 L 1103 600 L 1104 599 L 1107 599 Z M 330 598 L 332 598 L 334 600 L 334 602 L 332 604 L 330 604 L 327 602 Z M 1094 604 L 1092 606 L 1088 606 L 1087 607 L 1077 609 L 1077 611 L 1076 612 L 1074 612 L 1073 611 L 1067 611 L 1063 613 L 1060 613 L 1059 614 L 1059 617 L 1057 619 L 1056 618 L 1056 611 L 1047 611 L 1046 612 L 1044 610 L 1045 608 L 1049 608 L 1055 605 L 1057 606 L 1054 608 L 1056 609 L 1066 608 L 1068 607 L 1065 605 L 1061 605 L 1060 606 L 1057 606 L 1056 605 L 1059 603 L 1066 602 L 1068 600 L 1072 600 L 1073 599 L 1081 598 L 1082 597 L 1084 597 L 1085 598 L 1083 600 L 1070 604 L 1073 605 L 1074 607 L 1082 606 L 1083 605 L 1086 605 L 1091 603 L 1093 603 Z M 1117 601 L 1118 600 L 1127 600 L 1128 599 L 1131 599 L 1129 599 L 1128 598 L 1127 599 L 1122 599 L 1121 598 L 1123 596 L 1131 596 L 1132 597 L 1135 597 L 1137 599 L 1135 601 L 1133 601 L 1132 602 L 1118 602 Z M 662 598 L 653 603 L 651 603 L 648 605 L 646 605 L 642 607 L 637 608 L 633 606 L 634 605 L 639 605 L 640 604 L 648 602 L 651 600 L 653 600 L 654 599 L 653 598 L 653 596 L 655 594 L 660 596 Z M 296 602 L 278 617 L 273 620 L 268 625 L 264 627 L 260 631 L 246 641 L 243 641 L 242 642 L 241 640 L 245 635 L 251 632 L 256 627 L 261 624 L 268 617 L 264 617 L 258 622 L 256 622 L 257 623 L 257 625 L 254 628 L 247 629 L 246 630 L 247 632 L 243 636 L 226 635 L 226 639 L 229 639 L 230 640 L 239 640 L 240 641 L 239 642 L 227 642 L 223 639 L 223 637 L 221 637 L 220 636 L 220 634 L 223 630 L 224 630 L 265 594 L 268 594 L 269 595 L 287 596 L 288 597 L 290 597 L 291 599 Z M 1086 597 L 1089 595 L 1091 595 L 1098 592 L 1101 592 L 1106 595 L 1110 596 L 1111 597 L 1111 599 L 1109 600 L 1108 599 L 1109 598 L 1107 598 L 1106 597 L 1101 597 L 1100 599 L 1093 599 L 1092 598 L 1087 598 Z M 697 592 L 699 592 L 701 594 L 701 597 L 699 599 L 695 596 L 695 594 Z M 601 593 L 601 594 L 598 596 L 596 596 L 595 597 L 593 597 L 592 596 L 592 595 L 595 593 L 598 593 L 599 592 Z M 852 591 L 854 592 L 854 595 L 853 596 L 851 594 L 851 592 Z M 971 591 L 972 590 L 975 590 L 976 591 L 975 592 L 972 592 Z M 978 590 L 979 589 L 981 589 L 982 590 L 981 591 L 979 591 Z M 983 589 L 984 588 L 988 588 L 989 589 L 988 590 L 984 590 Z M 369 587 L 373 590 L 373 592 L 371 595 L 373 598 L 371 600 L 369 599 L 365 594 L 365 590 Z M 236 587 L 239 587 L 240 588 L 240 590 L 238 592 L 235 592 L 234 591 L 234 589 Z M 1005 586 L 1004 587 L 1000 587 L 999 588 L 995 588 L 994 589 L 989 589 L 988 588 L 989 587 L 993 587 L 994 586 L 998 586 L 999 585 L 1004 585 Z M 1035 600 L 1035 603 L 1034 604 L 1032 604 L 1032 605 L 1034 606 L 1033 607 L 1026 608 L 1025 609 L 1022 605 L 1023 604 L 1026 604 L 1026 602 L 1023 596 L 1020 593 L 1018 593 L 1019 597 L 1021 600 L 1022 605 L 1020 607 L 1017 607 L 1016 608 L 1008 610 L 1004 606 L 1002 601 L 997 596 L 996 596 L 995 598 L 1004 610 L 1000 612 L 995 612 L 994 613 L 992 613 L 991 614 L 992 615 L 991 616 L 986 616 L 982 611 L 981 611 L 980 613 L 977 608 L 977 605 L 981 602 L 983 604 L 983 606 L 985 608 L 985 610 L 987 613 L 991 611 L 991 607 L 987 601 L 980 596 L 981 594 L 986 592 L 989 592 L 990 591 L 994 591 L 995 590 L 1003 589 L 1006 595 L 1008 597 L 1011 598 L 1012 597 L 1009 592 L 1006 592 L 1004 590 L 1006 588 L 1014 587 L 1018 584 L 1020 584 L 1021 585 L 1020 586 L 1024 587 Z M 1030 584 L 1031 583 L 1033 586 L 1032 587 Z M 625 583 L 627 583 L 629 585 L 627 588 L 623 585 Z M 1054 582 L 1055 584 L 1053 586 L 1052 584 Z M 957 581 L 960 583 L 960 586 L 959 587 L 957 587 L 954 584 Z M 526 582 L 527 581 L 529 583 L 531 588 L 536 590 L 538 592 L 538 594 L 542 594 L 543 593 L 565 586 L 564 585 L 564 582 L 565 581 L 567 582 L 567 585 L 569 588 L 566 590 L 537 599 L 534 601 L 532 599 L 532 597 L 529 592 Z M 1029 581 L 1025 583 L 1016 584 L 1015 585 L 1011 585 L 1010 586 L 1005 586 L 1004 585 L 1005 584 L 1009 584 L 1010 583 L 1014 583 L 1015 582 L 1020 582 L 1025 580 L 1028 580 Z M 1056 576 L 1057 577 L 1057 581 L 1055 583 L 1054 581 Z M 1057 570 L 1058 571 L 1058 575 L 1057 576 L 1056 575 L 1056 571 Z M 1037 570 L 1040 573 L 1041 577 L 1046 586 L 1048 588 L 1051 585 L 1053 586 L 1047 591 L 1045 591 L 1044 592 L 1038 592 L 1038 594 L 1037 595 L 1032 587 L 1033 586 L 1036 589 L 1042 588 L 1043 587 L 1043 585 L 1039 578 L 1039 576 L 1036 572 Z M 997 569 L 998 570 L 996 572 L 996 574 L 993 579 L 992 578 L 994 571 Z M 989 564 L 990 565 L 989 568 L 983 575 L 982 578 L 980 579 L 977 583 L 976 582 L 976 580 Z M 1005 563 L 1006 565 L 1001 575 L 1000 574 L 1001 570 L 999 570 L 998 569 L 999 568 L 1001 568 Z M 1019 561 L 1020 563 L 1016 568 L 1013 574 L 1014 576 L 1013 577 L 1010 577 L 1009 576 L 1010 572 L 1012 570 L 1015 564 Z M 748 560 L 750 556 L 753 558 L 753 559 L 752 560 L 751 559 L 750 561 Z M 1033 555 L 1025 571 L 1022 574 L 1020 574 L 1019 572 L 1022 568 L 1023 565 L 1030 556 L 1026 556 L 1025 557 L 1022 557 L 1021 558 L 1018 558 L 1017 559 L 1014 559 L 1009 561 L 1004 561 L 1003 562 L 1000 562 L 999 563 L 996 563 L 991 565 L 989 564 L 991 562 L 993 562 L 994 561 L 997 561 L 1002 559 L 1006 559 L 1007 558 L 1010 558 L 1015 556 L 1024 555 L 1029 553 L 1031 553 Z M 1055 549 L 1056 550 L 1053 553 L 1043 555 L 1036 567 L 1036 569 L 1031 579 L 1029 581 L 1028 579 L 1040 555 L 1043 552 L 1046 552 L 1047 551 L 1050 551 Z M 1095 546 L 1096 547 L 1093 549 L 1092 548 Z M 1101 542 L 1102 543 L 1098 546 L 1097 545 Z M 1076 544 L 1077 542 L 1078 543 L 1089 543 L 1090 542 L 1092 543 L 1089 546 L 1082 546 L 1081 545 L 1077 545 Z M 680 533 L 681 532 L 683 535 L 682 536 Z M 793 529 L 798 532 L 795 536 L 793 535 L 791 532 Z M 1150 516 L 1149 518 L 1145 520 L 1142 520 L 1141 521 L 1135 522 L 1127 525 L 1119 526 L 1118 528 L 1104 542 L 1102 541 L 1116 527 L 1116 526 L 1104 526 L 1103 525 L 1097 525 L 1096 524 L 1097 523 L 1119 523 L 1121 521 L 1122 522 L 1125 522 L 1126 521 L 1133 520 L 1134 519 L 1140 518 L 1148 515 Z M 817 519 L 820 517 L 823 517 L 824 516 L 829 516 L 830 515 L 834 515 L 839 513 L 843 513 L 844 512 L 854 511 L 855 510 L 859 510 L 860 509 L 864 509 L 865 508 L 876 507 L 878 506 L 884 515 L 904 555 L 906 557 L 912 570 L 918 579 L 925 593 L 922 595 L 918 595 L 917 596 L 912 596 L 911 597 L 907 597 L 906 598 L 901 598 L 900 599 L 896 599 L 895 600 L 891 600 L 890 601 L 886 601 L 885 602 L 880 602 L 879 603 L 875 603 L 874 604 L 870 604 L 869 605 L 862 605 L 859 601 L 857 596 L 853 591 L 848 581 L 842 573 L 837 564 L 834 561 L 835 559 L 837 560 L 819 528 L 819 526 L 817 522 Z M 922 504 L 924 506 L 923 508 L 921 509 L 920 508 L 920 506 Z M 644 497 L 646 498 L 647 497 L 649 499 L 650 502 L 656 502 L 658 504 L 659 508 L 662 512 L 663 516 L 666 521 L 666 523 L 667 524 L 667 530 L 670 531 L 676 536 L 673 542 L 672 541 L 665 541 L 662 538 L 663 536 L 665 536 L 669 534 L 668 533 L 665 533 L 664 534 L 662 533 L 664 531 L 664 528 L 659 519 L 655 519 L 651 513 L 654 511 L 656 511 L 655 510 L 651 510 L 650 509 L 648 502 L 646 500 L 645 501 L 642 499 Z M 1135 495 L 1136 496 L 1136 498 L 1133 503 L 1133 505 L 1130 509 L 1128 514 L 1123 520 L 1122 518 L 1126 513 Z M 663 491 L 664 490 L 666 490 L 669 492 L 668 493 L 666 493 Z M 677 489 L 680 491 L 684 498 L 685 502 L 683 504 L 685 504 L 690 509 L 692 513 L 693 518 L 695 521 L 695 524 L 694 525 L 690 526 L 686 529 L 681 519 L 679 517 L 684 514 L 684 512 L 682 511 L 677 512 L 672 502 L 674 501 L 676 504 L 681 504 L 681 503 L 680 502 L 674 501 L 672 497 L 668 493 L 669 492 L 672 493 Z M 465 490 L 465 488 L 466 487 L 468 487 L 469 488 L 467 491 Z M 583 483 L 590 487 L 593 491 L 593 493 L 597 501 L 598 506 L 600 509 L 601 514 L 605 522 L 605 524 L 606 525 L 608 533 L 610 536 L 611 541 L 616 551 L 616 558 L 615 559 L 615 561 L 612 564 L 601 567 L 598 569 L 596 569 L 585 574 L 577 576 L 574 578 L 572 578 L 565 581 L 562 581 L 546 587 L 542 587 L 534 580 L 528 577 L 524 577 L 521 572 L 521 570 L 519 567 L 519 565 L 518 564 L 516 556 L 514 553 L 513 548 L 511 545 L 510 540 L 508 537 L 508 535 L 506 532 L 504 525 L 501 520 L 500 515 L 501 514 L 503 517 L 503 518 L 499 505 L 498 504 L 498 501 L 500 497 L 504 493 L 507 493 L 508 492 L 517 492 L 518 491 L 525 491 L 526 490 L 532 490 L 533 489 L 549 488 L 550 487 L 557 487 L 558 486 L 565 486 L 566 485 L 572 485 L 573 484 Z M 493 484 L 495 482 L 500 482 L 502 484 L 498 487 L 496 487 Z M 483 482 L 484 483 L 480 487 L 479 487 L 478 486 L 482 482 Z M 481 480 L 482 481 L 477 486 L 474 488 L 472 486 L 477 480 Z M 831 478 L 836 478 L 838 480 L 842 491 L 838 494 L 836 493 L 833 487 L 833 485 L 830 480 Z M 1118 481 L 1120 480 L 1122 476 L 1123 477 L 1123 479 L 1122 480 L 1123 481 L 1130 481 L 1131 480 L 1135 480 L 1136 479 L 1138 479 L 1139 480 L 1136 482 L 1130 483 L 1129 484 L 1120 483 Z M 841 475 L 844 478 L 848 486 L 848 488 L 849 489 L 849 491 L 848 492 L 846 492 L 838 480 L 838 477 Z M 935 473 L 939 477 L 937 480 L 933 477 L 933 475 Z M 864 471 L 868 471 L 874 480 L 874 486 L 873 487 L 871 487 L 867 482 L 863 473 Z M 349 470 L 350 471 L 349 472 L 351 474 L 350 475 L 348 474 L 340 482 L 339 480 L 343 476 L 343 475 L 348 470 Z M 590 468 L 591 468 L 593 471 L 592 473 L 590 473 L 588 471 Z M 1025 465 L 1026 464 L 1030 464 L 1031 465 L 1030 466 L 1026 466 Z M 1004 469 L 1004 465 L 1005 464 L 1007 464 L 1011 466 L 1015 466 L 1016 467 L 1011 471 L 1006 471 Z M 943 465 L 944 464 L 946 464 L 947 465 L 946 466 L 944 466 Z M 946 464 L 949 462 L 950 463 L 949 465 L 947 465 Z M 989 460 L 992 462 L 992 464 L 994 467 L 994 470 L 993 471 L 990 468 L 990 463 L 988 461 Z M 887 461 L 888 460 L 892 460 L 893 461 L 892 462 L 888 462 Z M 423 461 L 424 460 L 428 460 L 429 461 L 428 462 L 424 462 Z M 1056 459 L 1055 461 L 1050 462 L 1047 464 L 1043 464 L 1042 463 L 1048 460 L 1048 459 L 1052 456 Z M 601 457 L 602 456 L 615 456 L 616 457 L 615 458 L 602 458 Z M 595 456 L 596 455 L 598 455 L 599 457 L 598 458 L 596 458 Z M 638 455 L 639 454 L 641 454 L 642 455 L 641 456 L 639 456 Z M 946 453 L 948 452 L 951 455 L 949 456 L 948 458 Z M 1046 455 L 1042 458 L 1040 458 L 1039 457 L 1036 460 L 1034 459 L 1039 450 L 1041 453 Z M 1063 448 L 1065 450 L 1063 451 L 1063 457 L 1059 460 L 1056 459 L 1055 457 L 1057 454 L 1058 449 L 1059 448 Z M 931 447 L 932 449 L 927 454 L 926 454 L 925 453 Z M 687 450 L 687 448 L 690 446 L 693 448 L 691 451 L 688 451 Z M 1033 445 L 1034 446 L 1034 449 L 1032 452 L 1031 456 L 1029 458 L 1028 456 Z M 1019 443 L 1020 444 L 1020 446 L 1018 448 L 1017 446 Z M 647 444 L 646 445 L 639 445 L 638 446 L 634 446 L 633 447 L 631 446 L 632 444 L 636 444 L 637 443 L 641 443 L 642 442 L 645 442 Z M 798 447 L 800 444 L 817 441 L 823 442 L 811 445 L 812 449 L 810 451 L 809 447 L 804 448 L 805 451 L 802 452 L 811 472 L 824 470 L 834 471 L 887 461 L 888 462 L 884 464 L 860 469 L 863 472 L 869 488 L 878 486 L 876 481 L 873 479 L 872 474 L 869 471 L 870 469 L 877 471 L 882 482 L 882 485 L 887 484 L 878 469 L 880 467 L 884 467 L 887 471 L 889 467 L 891 468 L 890 471 L 894 475 L 893 478 L 891 479 L 890 478 L 891 481 L 893 482 L 903 481 L 893 463 L 894 461 L 906 482 L 899 485 L 879 488 L 866 492 L 830 499 L 821 482 L 824 480 L 827 480 L 829 482 L 833 490 L 833 494 L 830 496 L 859 490 L 854 484 L 855 489 L 853 491 L 851 490 L 844 475 L 846 473 L 850 475 L 851 477 L 851 475 L 855 473 L 861 484 L 861 488 L 866 489 L 859 475 L 858 469 L 819 477 L 817 475 L 820 474 L 811 475 L 805 465 Z M 631 443 L 630 444 L 625 444 L 624 445 L 626 445 L 627 444 L 628 446 L 627 447 L 622 447 L 620 450 L 618 448 L 609 448 L 606 454 L 604 452 L 605 449 L 610 445 L 612 445 L 616 443 L 619 443 L 620 442 L 623 442 L 624 441 L 629 441 Z M 504 441 L 505 442 L 505 444 L 502 450 L 499 465 L 497 466 L 496 465 L 496 462 L 499 455 L 501 445 Z M 822 441 L 823 440 L 826 440 L 827 441 L 826 442 L 823 442 Z M 772 437 L 774 436 L 776 438 L 774 439 Z M 664 437 L 665 436 L 674 436 L 675 437 L 674 438 L 665 438 Z M 957 435 L 958 436 L 958 445 L 959 446 L 959 458 L 958 459 L 957 458 L 957 453 L 956 452 L 956 436 Z M 1005 434 L 1008 434 L 1012 436 L 1013 438 L 1013 444 L 1012 445 L 1009 443 L 1007 444 L 1006 443 L 1006 438 L 1008 437 L 1007 436 L 1005 436 L 1004 435 Z M 1016 432 L 1017 431 L 1019 432 L 1021 432 L 1022 431 L 1025 434 L 1026 437 L 1024 439 L 1021 439 L 1019 441 L 1018 440 Z M 757 432 L 758 431 L 760 431 L 761 433 L 760 434 Z M 1065 428 L 1066 429 L 1063 431 L 1063 435 L 1064 436 L 1064 440 L 1063 441 L 1061 438 L 1061 430 L 1063 428 Z M 1146 428 L 1144 430 L 1135 431 L 1134 432 L 1124 432 L 1123 431 L 1127 429 L 1135 429 L 1136 428 L 1142 428 L 1143 427 L 1145 427 Z M 1065 428 L 1066 427 L 1068 427 L 1069 428 L 1068 429 L 1066 429 Z M 1038 429 L 1041 427 L 1047 427 L 1049 432 L 1041 435 L 1039 433 Z M 431 461 L 431 455 L 433 452 L 433 450 L 436 443 L 436 439 L 438 434 L 438 430 L 442 424 L 446 424 L 447 423 L 446 424 L 443 422 L 444 421 L 464 421 L 465 422 L 478 422 L 479 423 L 490 423 L 491 424 L 510 424 L 511 425 L 510 426 L 508 426 L 504 429 L 502 429 L 497 436 L 499 436 L 500 435 L 507 435 L 508 434 L 517 434 L 518 433 L 531 432 L 532 431 L 536 431 L 537 430 L 541 430 L 542 429 L 547 429 L 548 428 L 554 428 L 555 427 L 562 427 L 563 428 L 559 430 L 549 431 L 548 432 L 540 434 L 538 436 L 524 436 L 523 437 L 512 437 L 511 438 L 496 438 L 495 439 L 497 439 L 498 440 L 496 442 L 494 442 L 489 451 L 489 453 L 484 466 L 472 466 L 471 465 L 459 465 L 458 464 L 443 464 L 442 463 L 433 463 Z M 808 420 L 809 421 L 809 427 L 808 428 L 808 431 L 809 432 L 807 433 L 806 432 L 806 426 L 807 425 L 807 421 Z M 613 421 L 608 426 L 606 426 L 602 428 L 594 429 L 593 430 L 584 431 L 583 432 L 571 433 L 568 430 L 566 430 L 566 432 L 565 433 L 559 433 L 558 434 L 553 434 L 552 435 L 544 435 L 543 434 L 551 431 L 560 430 L 563 428 L 565 428 L 569 426 L 574 426 L 575 425 L 579 425 L 580 424 L 584 424 L 585 423 L 597 422 L 598 421 L 604 421 L 605 420 L 612 420 Z M 1030 420 L 1035 417 L 1040 418 L 1041 419 L 1037 422 L 1036 421 L 1032 422 Z M 1009 413 L 1013 413 L 1024 418 L 1035 427 L 1037 431 L 1037 442 L 1035 445 L 1033 444 L 1032 434 L 1028 425 L 1021 419 L 1015 416 L 1009 415 L 1008 414 Z M 841 414 L 841 417 L 840 418 L 822 418 L 821 419 L 811 420 L 810 421 L 808 420 L 810 417 L 817 417 L 818 416 L 823 416 L 824 415 L 828 415 L 829 414 L 835 414 L 836 415 L 834 416 L 838 416 L 838 415 L 836 414 L 837 413 L 840 413 Z M 507 414 L 508 413 L 520 413 L 521 414 L 520 415 L 508 415 Z M 571 413 L 572 412 L 576 412 L 577 413 L 576 414 L 572 414 Z M 849 411 L 852 411 L 853 412 L 853 414 L 854 415 L 854 418 L 853 419 L 851 418 L 850 419 L 848 419 L 847 418 L 847 413 Z M 632 415 L 630 417 L 619 422 L 618 423 L 618 427 L 617 428 L 615 423 L 613 422 L 618 416 L 622 414 L 625 411 L 627 412 L 624 415 L 626 415 L 627 414 L 631 414 Z M 630 408 L 631 409 L 628 411 L 627 410 Z M 866 407 L 870 410 L 870 419 L 869 420 L 868 419 L 868 411 L 865 409 Z M 599 408 L 597 410 L 593 410 L 592 411 L 588 411 L 587 412 L 583 412 L 582 413 L 577 413 L 576 412 L 577 411 L 581 411 L 582 410 L 586 410 L 587 409 L 591 409 L 592 408 L 596 408 L 597 407 Z M 770 407 L 771 406 L 774 410 L 772 411 Z M 782 404 L 783 404 L 785 407 L 785 409 L 784 410 L 781 406 Z M 986 403 L 988 405 L 988 408 L 987 409 L 986 419 L 985 420 L 985 430 L 984 431 L 984 433 L 987 433 L 988 432 L 989 425 L 990 424 L 991 413 L 993 408 L 999 412 L 1003 416 L 995 423 L 992 428 L 991 432 L 987 435 L 991 438 L 991 446 L 990 447 L 988 446 L 988 438 L 987 437 L 979 437 L 977 439 L 974 439 L 971 437 L 969 438 L 968 437 L 968 435 L 967 435 L 967 437 L 968 438 L 969 456 L 974 456 L 974 453 L 975 452 L 977 452 L 977 451 L 976 452 L 970 452 L 969 451 L 970 450 L 975 450 L 980 448 L 988 448 L 990 449 L 994 453 L 997 458 L 999 459 L 998 460 L 994 460 L 991 453 L 989 451 L 986 450 L 983 452 L 984 455 L 982 458 L 976 458 L 975 459 L 970 458 L 970 468 L 969 469 L 968 468 L 968 458 L 967 457 L 967 451 L 966 450 L 966 444 L 965 443 L 965 434 L 964 433 L 964 431 L 962 431 L 961 430 L 965 428 L 967 430 L 967 432 L 969 433 L 980 433 L 980 422 L 981 421 L 981 417 L 982 416 L 983 409 Z M 961 403 L 962 404 L 960 408 L 950 420 L 950 421 L 941 430 L 941 431 L 938 433 L 932 440 L 931 440 L 929 438 L 931 437 L 951 416 L 951 415 L 958 407 L 959 404 Z M 903 403 L 904 404 L 903 416 L 901 420 L 898 422 L 897 421 L 900 415 L 900 406 L 901 404 Z M 554 404 L 553 406 L 548 406 L 547 407 L 542 407 L 541 408 L 533 408 L 531 409 L 534 409 L 535 410 L 532 413 L 529 413 L 527 410 L 528 409 L 526 408 L 507 408 L 506 407 L 501 407 L 500 406 L 501 405 L 521 405 L 522 406 L 530 406 L 531 405 L 539 405 L 540 404 L 546 404 L 547 403 L 553 403 Z M 971 402 L 972 404 L 965 414 L 956 424 L 956 425 L 949 432 L 949 433 L 940 442 L 939 442 L 938 444 L 935 445 L 934 444 L 952 426 L 952 425 L 959 418 Z M 757 403 L 758 402 L 764 402 L 765 403 L 764 404 L 758 404 Z M 577 406 L 573 409 L 563 410 L 562 411 L 558 411 L 557 412 L 550 412 L 549 413 L 545 413 L 544 414 L 541 414 L 536 416 L 524 416 L 523 415 L 524 414 L 528 414 L 529 413 L 539 413 L 540 412 L 539 410 L 542 408 L 547 408 L 548 407 L 553 407 L 554 406 L 560 406 L 561 405 L 566 405 L 567 406 L 563 408 L 553 409 L 552 410 L 547 410 L 546 411 L 542 411 L 552 410 L 553 409 L 558 409 L 559 408 L 564 408 L 565 407 L 572 407 L 574 406 L 573 405 L 567 406 L 565 404 L 570 402 L 574 403 Z M 776 401 L 778 400 L 780 402 L 778 403 Z M 670 401 L 670 409 L 668 413 L 656 414 L 651 416 L 650 415 L 650 405 L 653 402 L 665 401 L 666 400 L 669 400 Z M 674 399 L 676 400 L 676 410 L 675 411 L 674 410 L 674 402 L 673 401 Z M 649 397 L 650 398 L 646 402 L 646 404 L 645 405 L 644 404 L 644 401 L 648 397 Z M 780 397 L 781 396 L 786 396 L 794 400 L 798 400 L 799 399 L 803 399 L 804 398 L 806 400 L 808 405 L 807 406 L 805 405 L 798 406 L 799 407 L 798 409 L 795 405 L 789 405 L 788 404 L 786 404 L 785 403 L 789 401 L 788 399 L 781 398 Z M 1100 394 L 1101 395 L 1101 400 L 1100 401 L 1098 398 L 1098 396 Z M 569 394 L 565 400 L 565 402 L 566 403 L 565 404 L 562 404 L 561 403 L 561 401 L 553 401 L 549 399 L 549 397 L 551 395 L 564 394 L 565 393 L 568 393 Z M 797 393 L 795 395 L 786 395 L 785 394 L 786 393 L 792 393 L 793 392 L 796 392 Z M 664 393 L 665 392 L 670 392 L 671 393 L 670 394 L 665 394 Z M 727 391 L 728 392 L 723 396 L 722 394 L 725 391 Z M 855 393 L 861 390 L 862 391 L 867 391 L 868 390 L 876 390 L 877 391 L 876 392 L 863 393 L 862 394 L 856 394 Z M 916 391 L 915 392 L 888 393 L 887 394 L 881 394 L 880 395 L 880 402 L 881 403 L 881 406 L 882 406 L 882 403 L 884 401 L 884 399 L 883 398 L 883 396 L 884 395 L 887 395 L 893 401 L 894 403 L 894 412 L 895 413 L 895 419 L 894 420 L 891 412 L 891 403 L 889 400 L 887 399 L 886 400 L 886 405 L 887 406 L 887 418 L 886 419 L 885 418 L 885 413 L 882 409 L 881 410 L 881 412 L 882 413 L 882 420 L 881 421 L 879 420 L 879 414 L 878 413 L 878 408 L 879 406 L 876 400 L 869 400 L 868 402 L 864 400 L 864 399 L 867 397 L 877 397 L 877 393 L 879 391 L 885 391 L 886 390 L 902 390 L 903 389 L 913 389 Z M 794 388 L 795 387 L 799 391 L 799 392 L 797 393 Z M 905 386 L 900 388 L 889 389 L 888 390 L 883 390 L 882 389 L 887 387 L 899 386 L 900 385 L 904 385 Z M 1116 380 L 1119 382 L 1119 384 L 1117 386 L 1114 384 L 1114 382 Z M 536 383 L 540 380 L 542 380 L 543 381 L 541 384 L 537 384 Z M 503 380 L 505 382 L 504 384 L 501 386 L 500 385 L 502 383 L 502 381 Z M 565 379 L 566 378 L 569 381 L 567 382 Z M 518 378 L 520 380 L 520 382 L 518 384 L 515 384 L 514 383 L 514 381 Z M 518 374 L 520 375 L 523 379 L 523 388 L 518 392 L 516 392 L 515 393 L 514 392 L 511 392 L 507 387 L 507 385 L 506 384 L 508 378 L 512 375 L 513 376 L 510 380 L 509 385 L 513 390 L 517 390 L 519 389 L 521 386 L 521 381 L 518 377 L 513 376 L 512 375 L 513 374 Z M 497 374 L 501 376 L 500 377 L 497 377 L 495 379 L 495 384 L 497 386 L 499 386 L 500 387 L 498 389 L 496 388 L 492 383 L 493 378 Z M 903 372 L 907 374 L 909 376 L 909 378 L 910 379 L 910 387 L 908 389 L 907 387 L 905 386 L 905 382 L 902 374 Z M 719 372 L 720 371 L 726 371 L 727 372 L 726 373 L 720 373 Z M 474 377 L 476 373 L 479 371 L 484 371 L 489 375 L 491 379 L 491 383 L 489 387 L 485 391 L 483 391 L 485 391 L 486 392 L 500 392 L 501 393 L 518 393 L 519 394 L 517 396 L 481 394 L 479 391 L 475 388 L 475 386 L 474 385 Z M 572 370 L 572 371 L 568 374 L 567 373 L 565 373 L 562 375 L 557 375 L 556 376 L 551 376 L 550 377 L 544 377 L 543 378 L 536 378 L 535 379 L 531 379 L 528 375 L 530 373 L 537 373 L 538 372 L 544 372 L 545 371 L 551 371 L 552 370 L 559 370 L 560 369 L 571 369 Z M 764 367 L 772 379 L 780 394 L 776 396 L 773 396 L 770 398 L 765 398 L 764 399 L 762 399 L 758 401 L 757 403 L 755 403 L 749 407 L 748 409 L 746 409 L 745 408 L 748 405 L 748 400 L 749 399 L 750 390 L 751 389 L 752 384 L 755 379 L 755 377 L 758 372 L 742 372 L 741 373 L 733 373 L 732 372 L 736 370 L 758 370 L 759 369 L 763 370 L 763 368 Z M 483 368 L 484 367 L 509 367 L 510 368 L 521 368 L 527 374 L 529 378 L 529 389 L 528 391 L 530 390 L 539 390 L 540 389 L 542 389 L 543 390 L 540 392 L 527 393 L 527 394 L 523 398 L 522 398 L 521 397 L 524 394 L 526 390 L 526 378 L 524 374 L 521 371 L 519 371 L 518 370 L 501 370 L 500 369 L 484 369 Z M 571 365 L 573 364 L 575 366 L 573 367 Z M 1098 364 L 1099 363 L 1101 366 L 1100 367 Z M 1122 363 L 1123 362 L 1125 365 L 1124 366 Z M 706 362 L 707 364 L 704 368 L 703 366 Z M 560 362 L 563 360 L 566 362 L 565 363 L 561 363 Z M 1120 360 L 1121 359 L 1123 362 L 1122 363 Z M 1095 360 L 1096 359 L 1098 362 L 1097 363 Z M 1018 357 L 1019 358 L 1019 360 L 1013 364 L 1001 377 L 1000 376 L 1001 373 Z M 1117 356 L 1118 355 L 1121 359 L 1120 360 Z M 1113 351 L 1114 350 L 1118 354 L 1118 355 L 1117 356 L 1113 352 Z M 1033 349 L 1033 350 L 1028 355 L 1021 358 L 1019 358 L 1018 357 L 1024 352 L 1032 348 Z M 889 343 L 892 345 L 894 349 L 893 351 L 888 345 Z M 855 339 L 862 348 L 872 367 L 872 369 L 874 372 L 874 374 L 877 381 L 877 384 L 879 389 L 878 391 L 876 390 L 875 383 L 874 382 L 871 371 L 869 368 L 869 366 L 863 354 L 854 341 Z M 1101 339 L 1103 338 L 1114 349 L 1114 350 L 1113 351 Z M 1074 339 L 1079 337 L 1089 336 L 1090 337 L 1089 338 L 1084 339 L 1083 340 L 1080 340 L 1080 341 L 1087 346 L 1095 346 L 1096 345 L 1101 345 L 1102 346 L 1098 348 L 1089 349 L 1090 350 L 1089 352 L 1077 341 L 1075 341 Z M 851 336 L 852 335 L 855 339 L 854 340 Z M 1107 431 L 1095 498 L 1051 541 L 1063 530 L 1050 530 L 1062 527 L 1053 464 L 1091 499 L 1099 479 L 1074 457 L 1104 430 L 1101 418 L 1084 423 L 1067 409 L 1085 381 L 1074 366 L 1055 412 L 1043 414 L 1058 422 L 1020 413 L 1002 394 L 1033 357 L 1024 378 L 1042 411 L 1036 350 L 1044 345 L 1010 341 L 975 356 L 935 422 L 959 400 L 912 436 L 917 445 L 906 435 L 902 447 L 897 425 L 791 443 L 821 507 L 944 483 L 797 516 L 816 521 L 862 611 L 967 592 L 920 490 L 946 485 L 925 496 L 978 518 L 1038 506 L 997 482 L 949 486 L 986 478 L 979 474 L 1002 482 L 1010 471 L 1008 486 L 1020 467 L 1017 491 L 1040 464 L 1050 522 L 990 536 L 968 598 L 851 621 L 795 522 L 690 598 L 713 639 L 835 621 L 747 636 L 725 651 L 713 641 L 720 657 L 679 599 L 690 604 L 686 589 L 635 569 L 594 465 L 490 480 L 498 510 L 491 496 L 475 495 L 487 477 L 599 451 L 529 470 L 638 455 L 604 474 L 596 466 L 639 567 L 711 523 L 684 484 L 662 490 L 680 533 L 659 490 L 638 494 L 660 552 L 697 522 L 708 525 L 653 559 L 641 556 L 617 501 L 685 478 L 696 442 L 650 447 L 728 426 L 754 429 L 709 437 L 783 441 L 867 421 L 903 426 L 913 411 L 899 394 L 917 402 L 902 428 L 917 433 L 926 401 L 917 398 L 931 390 L 924 433 L 952 369 L 1010 334 L 1044 338 L 1034 339 L 1068 356 Z M 847 331 L 848 330 L 851 334 L 850 335 Z M 1101 329 L 1102 328 L 1103 329 L 1125 330 L 1141 344 L 1144 344 L 1145 345 L 1145 347 L 1152 355 L 1163 371 L 1162 372 L 1159 372 L 1158 371 L 1137 371 L 1135 369 L 1132 362 L 1121 347 L 1109 336 L 1103 332 Z M 1011 324 L 1040 325 L 1056 330 L 1077 343 L 1093 359 L 1101 370 L 1111 390 L 1133 385 L 1124 367 L 1125 365 L 1136 385 L 1165 385 L 1159 374 L 1161 373 L 1167 378 L 1169 387 L 1175 396 L 1180 411 L 1181 420 L 1177 423 L 1167 388 L 1133 388 L 1112 393 L 1118 410 L 1122 429 L 1122 458 L 1118 478 L 1109 502 L 1096 523 L 1078 541 L 1060 551 L 1057 548 L 1073 538 L 1090 521 L 1098 509 L 1106 492 L 1114 459 L 1114 429 L 1112 418 L 1103 390 L 1095 374 L 1086 361 L 1072 347 L 1056 336 L 1045 331 L 1028 327 L 1006 326 Z M 1065 319 L 1064 321 L 1058 321 L 1057 322 L 1047 323 L 1046 324 L 1036 324 L 1035 323 L 1036 322 L 1040 322 L 1041 321 L 1053 320 L 1058 318 L 1064 318 Z M 865 415 L 864 420 L 859 405 L 809 412 L 804 417 L 801 436 L 790 435 L 793 434 L 794 422 L 761 429 L 752 426 L 782 419 L 708 415 L 766 415 L 791 419 L 804 407 L 837 402 L 832 399 L 836 394 L 832 380 L 827 386 L 823 381 L 821 385 L 820 380 L 809 373 L 803 383 L 796 379 L 789 380 L 776 345 L 795 333 L 787 329 L 767 327 L 743 335 L 726 350 L 710 377 L 703 402 L 714 392 L 715 394 L 703 407 L 711 406 L 721 396 L 720 400 L 723 402 L 718 402 L 715 408 L 706 414 L 694 415 L 769 418 L 772 421 L 748 424 L 741 421 L 689 417 L 646 423 L 644 421 L 705 410 L 695 408 L 702 378 L 713 356 L 737 331 L 761 321 L 780 321 L 801 329 L 802 332 L 788 326 L 804 335 L 814 348 L 821 352 L 834 375 L 840 402 L 847 401 L 836 363 L 820 339 L 802 323 L 787 316 L 763 313 L 767 311 L 797 315 L 824 334 L 838 353 L 849 376 L 854 400 L 862 405 Z M 786 310 L 787 309 L 791 309 L 792 308 L 797 308 L 798 309 L 797 310 L 793 310 L 794 311 L 802 311 L 803 310 L 808 310 L 809 309 L 813 309 L 814 308 L 816 308 L 818 310 L 813 312 L 808 312 L 807 313 L 802 313 L 801 314 L 789 312 Z" fill="black" fill-rule="evenodd"/>
</svg>