<svg xmlns="http://www.w3.org/2000/svg" width="1448" height="1086" viewBox="0 0 1448 1086" shape-rendering="geometricPrecision">
  <path d="M 200 694 L 202 695 L 206 695 L 210 697 L 214 697 L 215 698 L 222 699 L 223 700 L 227 700 L 228 701 L 231 701 L 236 703 L 240 703 L 245 705 L 265 708 L 265 707 L 263 706 L 259 706 L 258 705 L 254 705 L 249 703 L 245 703 L 234 699 L 230 699 L 226 697 L 223 697 L 222 696 L 219 696 L 215 694 L 211 694 L 210 693 L 207 693 L 202 691 Z M 617 691 L 615 690 L 592 713 L 596 711 L 604 703 L 605 703 L 613 695 L 614 695 Z M 628 635 L 624 635 L 623 636 L 616 637 L 612 639 L 609 639 L 605 641 L 601 641 L 597 643 L 594 643 L 590 645 L 583 646 L 579 648 L 575 648 L 574 649 L 564 651 L 560 653 L 556 653 L 545 657 L 530 660 L 526 662 L 511 665 L 507 667 L 504 667 L 503 668 L 500 668 L 495 670 L 491 670 L 487 672 L 484 672 L 483 673 L 480 673 L 479 674 L 476 674 L 475 675 L 472 675 L 471 676 L 468 676 L 463 678 L 459 678 L 455 680 L 451 680 L 450 681 L 441 682 L 440 683 L 437 683 L 432 685 L 428 685 L 427 686 L 413 688 L 408 690 L 404 690 L 400 693 L 405 693 L 406 692 L 415 691 L 416 690 L 424 689 L 425 688 L 428 688 L 433 686 L 437 686 L 442 684 L 446 684 L 451 682 L 455 682 L 459 680 L 463 680 L 464 679 L 467 679 L 468 678 L 471 678 L 472 677 L 475 677 L 476 676 L 479 676 L 484 674 L 488 674 L 492 672 L 496 672 L 500 670 L 503 670 L 504 669 L 519 666 L 523 664 L 527 664 L 531 662 L 534 662 L 535 661 L 550 658 L 557 655 L 560 655 L 561 654 L 572 652 L 576 650 L 587 648 L 591 646 L 606 643 L 610 641 L 621 639 L 625 637 L 628 637 Z M 437 629 L 437 632 L 439 634 L 442 634 L 443 635 L 457 634 L 457 632 L 458 631 L 458 629 Z M 675 624 L 674 623 L 666 624 L 662 626 L 659 626 L 658 627 L 651 628 L 647 630 L 640 631 L 640 633 L 648 632 L 652 630 L 667 627 Z M 739 607 L 732 606 L 731 607 L 720 609 L 713 612 L 706 613 L 702 615 L 699 615 L 698 616 L 688 618 L 687 619 L 688 620 L 693 620 L 700 617 L 703 617 L 704 616 L 707 616 L 708 615 L 711 615 L 712 614 L 715 614 L 716 613 L 731 610 L 735 608 L 739 608 Z M 810 582 L 802 593 L 804 593 Z M 825 585 L 817 581 L 815 581 L 811 589 L 811 591 L 808 595 L 808 597 L 802 606 L 801 604 L 805 597 L 805 595 L 804 596 L 800 596 L 799 597 L 785 599 L 784 600 L 781 600 L 780 601 L 770 603 L 769 604 L 765 604 L 762 606 L 766 609 L 765 610 L 763 610 L 760 607 L 760 608 L 762 609 L 761 611 L 759 610 L 762 613 L 761 614 L 756 614 L 754 612 L 756 611 L 756 610 L 750 610 L 752 611 L 764 623 L 767 623 L 768 622 L 771 622 L 772 621 L 787 618 L 791 616 L 795 616 L 799 614 L 806 613 L 810 611 L 813 611 L 814 607 L 816 605 L 816 603 Z M 1179 552 L 1021 593 L 822 650 L 820 652 L 873 722 L 874 719 L 876 725 L 1022 680 L 1058 644 L 1160 613 L 1171 579 L 1163 597 L 1159 601 L 1155 601 L 1159 598 L 1168 578 L 1170 576 L 1172 577 Z M 1129 609 L 1128 610 L 1125 610 L 1114 614 L 1111 614 L 1107 616 L 1104 616 L 1101 618 L 1098 618 L 1094 620 L 1090 620 L 1089 621 L 1088 620 L 1090 616 L 1090 614 L 1092 612 L 1093 613 L 1094 612 L 1098 612 L 1099 611 L 1102 611 L 1103 610 L 1106 610 L 1111 608 L 1128 608 Z M 1106 595 L 1099 598 L 1098 600 L 1097 599 L 1097 597 L 1099 595 L 1101 595 L 1102 594 L 1105 594 Z M 1105 594 L 1106 593 L 1109 593 L 1110 594 L 1109 595 L 1106 595 Z M 1109 593 L 1113 591 L 1116 591 L 1117 592 L 1113 594 L 1110 594 Z M 1116 591 L 1117 590 L 1119 590 L 1120 591 L 1119 592 L 1117 592 Z M 1119 590 L 1120 589 L 1122 589 L 1123 590 L 1122 591 L 1120 591 Z M 1122 589 L 1123 588 L 1126 588 L 1127 589 L 1126 590 L 1123 590 Z M 1126 588 L 1127 587 L 1129 587 L 1130 588 L 1129 589 L 1127 589 Z M 1130 587 L 1131 586 L 1133 586 L 1134 587 L 1133 588 L 1131 588 Z M 1139 584 L 1140 583 L 1142 583 L 1143 584 L 1142 585 L 1140 585 Z M 1027 532 L 1019 531 L 1018 530 L 1013 530 L 1012 531 L 1009 531 L 1004 533 L 1000 533 L 996 535 L 992 535 L 991 536 L 988 536 L 987 537 L 984 537 L 979 539 L 975 539 L 971 541 L 967 541 L 966 542 L 963 542 L 962 543 L 959 543 L 954 545 L 950 545 L 946 547 L 942 547 L 941 548 L 938 548 L 937 549 L 934 549 L 933 550 L 930 550 L 929 551 L 926 551 L 925 552 L 910 555 L 906 557 L 903 557 L 902 558 L 899 558 L 898 559 L 895 559 L 890 561 L 886 561 L 883 563 L 878 563 L 867 567 L 863 567 L 862 568 L 855 569 L 851 571 L 844 572 L 836 575 L 832 575 L 831 576 L 821 578 L 820 579 L 822 579 L 826 581 L 831 581 L 832 580 L 835 580 L 846 576 L 854 575 L 855 574 L 870 571 L 878 568 L 882 568 L 883 567 L 893 565 L 894 564 L 898 564 L 909 560 L 912 560 L 913 559 L 916 559 L 917 558 L 920 558 L 921 557 L 924 557 L 929 555 L 937 554 L 941 552 L 949 551 L 953 549 L 958 549 L 959 548 L 974 545 L 982 542 L 986 542 L 991 540 L 995 540 L 996 539 L 999 539 L 1000 538 L 1003 538 L 1004 537 L 1007 537 L 1008 536 L 1011 536 L 1012 535 Z M 971 543 L 972 542 L 976 542 L 977 543 L 976 544 L 972 544 Z M 976 542 L 977 541 L 979 541 L 980 542 L 979 543 L 977 543 Z M 980 541 L 981 539 L 983 539 L 984 540 L 981 542 Z M 575 507 L 574 505 L 570 505 L 569 506 L 565 506 L 564 507 L 559 507 L 558 508 L 558 512 L 560 513 L 561 512 L 566 512 L 567 511 L 575 510 Z M 652 496 L 647 497 L 646 498 L 643 498 L 642 499 L 638 499 L 637 500 L 633 500 L 632 501 L 627 501 L 622 503 L 618 503 L 617 504 L 610 505 L 607 508 L 584 544 L 587 550 L 591 554 L 591 555 L 594 557 L 594 558 L 596 558 L 597 557 L 602 557 L 603 556 L 607 556 L 608 555 L 613 555 L 614 554 L 618 554 L 619 553 L 623 553 L 628 551 L 632 551 L 633 550 L 644 548 L 650 539 L 660 529 L 660 520 L 659 519 L 658 512 Z M 589 492 L 593 492 L 594 493 L 613 493 L 617 491 L 613 489 L 600 489 L 599 490 L 595 490 L 592 492 L 591 491 Z M 1069 470 L 1066 467 L 1065 468 L 1060 468 L 1060 469 L 1063 469 L 1064 470 Z M 794 428 L 792 429 L 784 429 L 783 430 L 769 431 L 768 432 L 760 432 L 759 433 L 745 434 L 718 482 L 725 482 L 726 481 L 734 481 L 735 480 L 742 480 L 743 479 L 750 479 L 751 478 L 760 478 L 761 477 L 776 476 L 779 470 L 780 465 L 782 462 L 783 457 L 785 454 L 787 446 L 791 438 Z M 739 457 L 740 459 L 737 462 L 736 460 Z M 890 408 L 886 408 L 885 409 L 877 410 L 872 412 L 868 412 L 863 414 L 854 415 L 850 417 L 840 418 L 839 419 L 836 419 L 831 421 L 827 421 L 826 422 L 823 422 L 822 423 L 819 423 L 818 424 L 810 425 L 809 426 L 799 428 L 781 475 L 791 473 L 792 472 L 795 472 L 796 471 L 799 471 L 800 470 L 803 470 L 804 469 L 808 469 L 809 468 L 812 468 L 817 466 L 821 466 L 822 465 L 829 464 L 833 462 L 837 462 L 838 461 L 842 461 L 846 459 L 849 459 L 850 458 L 850 448 L 849 447 L 849 418 L 850 417 L 851 418 L 852 457 L 853 458 L 854 457 L 858 457 L 859 456 L 862 456 L 867 454 L 871 454 L 875 452 L 878 452 L 879 451 L 882 451 L 883 450 L 893 448 L 893 443 L 892 442 L 892 430 L 891 429 L 891 420 L 890 419 Z M 790 463 L 791 464 L 791 469 L 787 472 L 786 471 L 786 469 Z M 1014 403 L 1008 403 L 1007 404 L 1004 404 L 999 406 L 995 406 L 990 408 L 976 410 L 976 411 Z M 887 382 L 888 388 L 889 389 L 892 389 L 893 388 L 893 384 L 892 382 Z M 790 384 L 786 383 L 784 381 L 781 381 L 778 383 L 768 385 L 761 388 L 754 394 L 753 392 L 751 393 L 748 397 L 758 396 L 759 395 L 770 393 L 774 391 L 777 391 L 778 390 L 789 387 L 790 386 Z M 928 319 L 926 319 L 925 320 L 920 320 L 919 321 L 919 337 L 920 338 L 917 340 L 924 340 L 925 338 L 928 336 Z M 921 282 L 919 283 L 913 283 L 912 284 L 904 284 L 903 285 L 889 286 L 888 287 L 869 288 L 868 289 L 868 294 L 872 294 L 873 293 L 882 293 L 883 292 L 892 292 L 893 291 L 899 291 L 900 290 L 917 289 L 921 287 Z M 1346 535 L 1330 513 L 1182 551 L 1163 612 L 1331 567 L 877 728 L 817 652 L 591 718 L 779 750 L 641 749 L 587 719 L 217 746 L 233 717 L 377 697 L 222 743 L 581 716 L 774 658 L 769 637 L 780 657 L 878 631 L 892 569 L 770 626 L 741 610 L 394 698 L 422 666 L 663 607 L 405 687 L 759 605 L 752 585 L 662 597 L 749 582 L 720 561 L 762 602 L 799 594 L 891 457 L 733 569 L 895 451 L 814 576 L 1012 526 L 1161 531 L 895 568 L 884 629 L 1329 511 L 1253 512 L 1296 479 L 1192 502 L 1236 471 L 1292 478 L 1219 484 L 1197 465 L 1214 432 L 1122 444 L 1166 473 L 1135 468 L 1132 493 L 1133 465 L 1091 482 L 1111 467 L 1027 374 L 949 389 L 1021 372 L 1011 343 L 841 355 L 912 353 L 911 292 L 865 296 L 822 344 L 815 234 L 813 325 L 789 306 L 798 339 L 781 310 L 785 354 L 658 411 L 737 430 L 751 411 L 683 397 L 884 391 L 743 427 L 898 404 L 900 447 L 952 434 L 942 394 L 955 434 L 949 390 L 980 434 L 713 486 L 631 468 L 672 427 L 639 465 L 713 482 L 740 435 L 659 416 L 623 469 L 551 501 L 590 496 L 555 503 L 578 512 L 467 521 L 498 531 L 480 558 L 420 571 L 394 545 L 213 616 L 201 663 L 116 723 L 199 714 L 168 736 L 188 771 L 115 731 L 210 806 L 365 863 L 794 778 L 1321 601 Z M 373 824 L 374 823 L 382 823 L 383 824 L 419 823 L 420 824 L 429 825 L 430 826 L 444 827 L 446 829 L 445 830 L 440 830 L 439 831 L 431 832 L 430 833 L 426 833 L 425 834 L 421 834 L 420 835 L 411 835 L 410 834 L 407 834 L 406 833 L 403 833 L 402 832 L 399 832 L 398 831 L 395 831 L 394 830 L 391 830 L 390 829 L 387 829 L 386 828 L 383 828 L 378 826 L 374 826 Z M 272 796 L 273 795 L 292 795 L 293 796 L 322 796 L 323 797 L 322 798 L 290 798 L 289 797 L 286 798 L 285 797 L 273 797 Z M 264 795 L 267 793 L 270 796 L 267 798 L 266 796 Z M 303 791 L 304 790 L 306 790 L 307 791 L 306 792 L 304 792 Z M 294 788 L 295 787 L 297 787 L 300 789 L 299 790 L 297 790 Z M 291 787 L 292 786 L 294 786 L 295 787 L 294 788 L 292 788 Z M 410 790 L 409 791 L 392 791 L 391 790 L 392 789 L 394 789 L 396 786 L 403 785 L 404 784 Z M 284 785 L 285 784 L 287 784 L 288 785 L 287 786 L 285 786 Z M 281 784 L 282 783 L 284 783 L 285 784 L 284 785 L 282 785 Z M 357 783 L 358 782 L 363 787 L 361 788 L 357 784 Z M 278 783 L 279 782 L 281 782 L 282 783 L 281 784 L 279 784 Z M 274 782 L 275 781 L 278 781 L 279 782 L 278 783 L 275 783 Z M 270 781 L 271 780 L 274 780 L 275 781 L 274 782 L 271 782 Z M 382 780 L 383 779 L 392 788 L 392 789 L 391 790 L 382 781 Z M 267 780 L 268 779 L 270 779 L 271 780 L 270 781 L 268 781 Z M 263 779 L 264 778 L 266 778 L 267 779 L 266 780 L 264 780 Z M 352 778 L 353 777 L 357 781 L 355 782 Z M 207 771 L 208 770 L 215 770 L 216 771 L 215 772 L 208 772 Z M 216 770 L 219 768 L 220 769 L 219 771 L 217 771 Z M 308 761 L 309 760 L 312 760 L 313 761 L 312 762 L 313 764 L 315 765 L 339 790 L 337 791 L 308 762 Z M 351 760 L 352 759 L 354 759 L 383 790 L 382 791 L 367 791 L 366 790 L 371 785 L 375 785 L 351 761 Z M 334 760 L 335 759 L 343 759 L 344 760 L 343 761 L 338 761 L 353 777 L 351 778 L 335 763 Z M 316 760 L 317 759 L 327 759 L 329 762 L 356 789 L 356 790 L 355 791 L 340 791 L 339 790 L 344 785 L 348 785 L 348 784 L 347 784 L 346 782 L 345 782 L 325 761 L 317 761 Z M 364 758 L 366 759 L 371 766 L 381 776 L 380 778 L 365 763 L 363 760 Z M 377 758 L 378 757 L 381 757 L 397 775 L 397 776 L 404 783 L 404 784 L 403 785 L 382 763 L 382 762 Z M 787 753 L 782 756 L 636 800 L 654 800 L 648 802 L 332 800 L 325 798 L 628 799 L 781 753 L 783 751 Z M 805 750 L 794 754 L 791 754 L 790 753 L 800 749 L 804 749 Z M 804 749 L 805 748 L 807 748 L 808 749 L 807 750 L 805 750 Z M 841 739 L 840 740 L 838 740 L 831 743 L 828 743 L 821 746 L 818 746 L 811 749 L 808 749 L 807 748 L 808 747 L 810 747 L 817 744 L 820 744 L 833 739 L 836 739 L 837 738 L 840 738 Z M 195 740 L 197 738 L 198 739 L 205 740 L 209 742 L 208 743 L 203 743 L 202 742 L 197 742 Z M 840 738 L 841 737 L 843 737 L 844 738 L 843 739 L 841 739 Z M 854 735 L 847 738 L 844 738 L 843 737 L 850 734 L 853 734 Z M 853 734 L 854 733 L 856 733 L 857 734 L 856 735 L 854 735 Z M 856 733 L 857 732 L 859 732 L 860 733 L 859 734 L 857 734 Z M 859 732 L 863 730 L 866 730 L 867 731 L 863 733 L 860 733 Z M 866 730 L 867 729 L 869 729 L 870 730 L 869 731 L 867 731 Z M 228 717 L 229 716 L 232 716 L 233 717 L 232 718 L 229 718 Z M 375 706 L 376 708 L 374 710 L 373 708 Z M 716 701 L 715 702 L 701 704 L 700 705 L 697 705 L 692 707 L 682 708 L 681 709 L 677 709 L 676 710 L 672 710 L 670 708 L 671 707 L 683 706 L 688 704 L 699 703 L 700 702 L 704 702 L 705 701 L 709 701 L 710 700 L 715 700 Z M 715 700 L 716 699 L 720 699 L 721 700 L 720 701 L 716 701 Z M 720 699 L 721 698 L 724 698 L 725 699 L 724 700 L 721 700 Z M 628 699 L 610 712 L 609 711 L 609 710 L 618 701 L 620 702 L 619 703 L 620 702 L 619 701 L 622 698 L 627 698 Z M 725 698 L 726 697 L 730 697 L 731 698 L 730 699 L 726 699 Z M 731 697 L 732 696 L 734 696 L 735 697 L 734 698 L 732 698 Z M 147 701 L 148 700 L 152 700 L 153 699 L 157 699 L 158 698 L 164 698 L 168 696 L 175 696 L 176 697 L 175 698 L 171 698 L 167 700 L 160 700 L 157 702 L 155 702 L 165 704 L 172 707 L 176 707 L 183 710 L 198 709 L 199 708 L 200 708 L 201 710 L 200 711 L 196 711 L 195 712 L 181 713 L 179 711 L 175 711 L 168 708 L 161 707 L 158 705 L 151 704 Z M 734 695 L 735 694 L 738 696 L 737 697 L 735 697 Z M 691 690 L 692 689 L 694 689 L 695 690 L 694 691 L 692 691 Z M 162 688 L 163 687 L 167 687 L 168 688 L 167 689 L 163 689 Z M 696 687 L 699 685 L 702 687 L 701 688 L 697 688 Z M 739 682 L 740 684 L 737 690 L 736 689 L 736 687 L 737 686 L 737 684 Z M 214 682 L 215 681 L 217 681 L 218 682 L 217 683 L 215 683 Z M 750 671 L 751 672 L 748 676 L 747 675 L 747 673 Z M 194 696 L 197 694 L 200 690 L 200 673 L 202 670 L 204 671 L 203 672 L 203 687 L 205 688 L 204 689 L 209 689 L 213 691 L 220 692 L 221 693 L 223 693 L 227 695 L 230 695 L 231 696 L 234 696 L 238 698 L 241 698 L 242 699 L 245 699 L 246 700 L 254 701 L 258 703 L 265 704 L 268 708 L 272 708 L 273 707 L 281 707 L 282 706 L 291 706 L 292 705 L 299 705 L 300 704 L 306 704 L 307 703 L 313 703 L 314 702 L 321 702 L 322 701 L 335 700 L 336 699 L 341 699 L 342 698 L 347 698 L 348 697 L 362 696 L 363 695 L 367 695 L 368 694 L 372 694 L 373 693 L 379 693 L 380 692 L 386 692 L 387 693 L 384 696 L 383 695 L 379 695 L 374 697 L 362 698 L 361 699 L 357 699 L 356 700 L 351 700 L 350 701 L 345 701 L 344 702 L 338 702 L 337 703 L 332 703 L 331 704 L 325 704 L 324 705 L 319 705 L 318 706 L 311 706 L 310 707 L 296 708 L 295 709 L 288 709 L 287 710 L 279 710 L 278 711 L 269 711 L 268 712 L 264 712 L 263 711 L 256 710 L 255 709 L 245 708 L 241 706 L 227 704 L 222 702 L 218 702 L 217 701 L 214 701 L 213 700 L 210 700 L 205 698 L 195 697 Z M 1159 652 L 1156 654 L 1154 654 L 1150 656 L 1140 664 L 1135 666 L 1130 670 L 1126 672 L 1124 671 L 1154 651 L 1155 652 L 1156 651 L 1158 651 Z M 1159 651 L 1160 650 L 1162 650 L 1163 651 L 1162 652 L 1160 652 Z M 497 638 L 493 640 L 490 640 L 486 642 L 483 642 L 475 645 L 468 646 L 457 650 L 454 650 L 446 653 L 443 653 L 442 654 L 431 656 L 427 658 L 424 658 L 417 661 L 415 660 L 417 658 L 419 658 L 423 656 L 426 656 L 427 655 L 437 653 L 441 651 L 444 651 L 445 650 L 452 649 L 456 647 L 463 646 L 467 644 L 470 644 L 474 642 L 481 641 L 485 639 L 488 639 L 493 637 L 496 637 Z M 318 638 L 319 637 L 321 637 L 322 638 L 321 639 L 319 639 Z M 768 634 L 769 635 L 769 637 L 768 638 L 767 637 L 767 635 Z M 409 625 L 410 624 L 417 624 L 418 625 L 417 626 L 410 626 Z M 405 625 L 406 624 L 408 624 L 409 625 L 408 626 L 406 626 Z M 549 624 L 545 626 L 538 627 L 537 628 L 527 630 L 526 631 L 523 631 L 522 630 L 526 628 L 533 627 L 534 626 L 544 624 L 545 623 L 548 623 Z M 421 624 L 422 623 L 430 623 L 431 624 L 430 625 L 422 625 Z M 354 623 L 355 622 L 369 622 L 370 623 L 392 624 L 393 625 L 392 626 L 380 626 L 379 625 L 363 625 L 362 624 L 355 624 Z M 633 615 L 636 620 L 636 623 L 638 626 L 638 628 L 637 629 L 634 624 L 634 622 L 632 618 L 632 616 Z M 668 614 L 669 613 L 672 617 L 671 618 Z M 384 615 L 386 613 L 387 614 L 392 614 L 393 615 L 394 614 L 403 614 L 404 615 L 407 615 L 411 618 L 413 617 L 415 619 L 417 619 L 420 621 L 419 622 L 415 622 L 408 619 L 403 619 L 400 617 L 398 617 L 401 619 L 399 620 L 398 619 L 391 618 Z M 677 611 L 678 610 L 682 614 L 682 615 L 681 616 L 677 612 Z M 445 609 L 446 608 L 448 608 L 449 609 L 448 610 L 446 610 Z M 581 608 L 582 607 L 587 607 L 590 609 L 589 610 L 587 610 L 586 609 L 582 609 Z M 477 607 L 469 610 L 469 615 L 468 616 L 467 615 L 467 611 L 454 612 L 453 611 L 449 611 L 448 610 L 449 609 L 465 609 L 473 606 L 476 606 Z M 434 606 L 435 605 L 438 605 L 439 606 L 438 607 L 435 607 Z M 390 606 L 391 605 L 393 605 L 394 606 L 393 607 L 391 607 Z M 476 606 L 479 604 L 483 604 L 484 605 L 480 607 L 477 607 Z M 385 605 L 386 604 L 388 604 L 389 605 L 388 606 L 386 606 Z M 667 604 L 668 603 L 672 607 L 672 608 L 671 609 L 667 605 Z M 483 604 L 487 602 L 490 602 L 491 603 L 487 605 L 484 605 Z M 424 603 L 425 602 L 427 602 L 428 603 L 427 604 L 425 604 Z M 378 603 L 379 602 L 382 602 L 386 604 L 385 605 L 382 605 Z M 420 602 L 421 601 L 424 601 L 425 602 L 424 603 L 421 603 Z M 343 601 L 341 602 L 341 604 L 346 614 L 346 618 L 347 620 L 344 623 L 339 625 L 333 629 L 349 624 L 351 621 L 353 621 L 354 623 L 350 626 L 334 632 L 332 632 L 331 631 L 330 632 L 326 632 L 318 636 L 316 638 L 318 638 L 319 639 L 316 641 L 314 641 L 313 642 L 311 642 L 310 641 L 305 642 L 292 649 L 290 649 L 281 654 L 279 654 L 277 656 L 275 656 L 268 660 L 266 660 L 257 665 L 255 665 L 253 667 L 251 667 L 244 671 L 242 671 L 237 674 L 235 674 L 226 679 L 224 679 L 223 678 L 238 670 L 240 670 L 253 663 L 255 663 L 293 644 L 295 644 L 308 637 L 310 637 L 327 628 L 329 628 L 344 620 L 343 613 L 338 603 L 338 601 L 339 600 L 342 600 Z M 496 600 L 497 599 L 499 599 L 500 600 L 499 601 L 497 601 Z M 374 601 L 377 599 L 379 600 L 378 601 L 379 602 L 378 603 L 376 603 Z M 342 600 L 343 599 L 345 599 L 346 600 L 345 601 L 343 601 Z M 978 599 L 975 601 L 973 601 L 969 603 L 967 602 L 969 600 L 971 600 L 975 598 L 977 598 Z M 499 599 L 500 598 L 502 598 L 503 599 L 502 600 L 500 600 Z M 448 599 L 449 598 L 451 598 L 452 599 L 451 600 L 449 600 Z M 502 598 L 503 597 L 505 597 L 506 598 L 505 599 L 503 599 Z M 444 598 L 445 597 L 447 597 L 448 598 L 447 599 L 445 599 Z M 506 597 L 507 596 L 509 596 L 510 597 L 509 598 L 507 598 Z M 440 597 L 441 596 L 444 596 L 445 597 L 444 598 L 441 598 Z M 668 602 L 667 604 L 662 600 L 654 600 L 422 663 L 412 670 L 403 680 L 377 714 L 382 714 L 385 711 L 389 710 L 389 714 L 380 717 L 373 717 L 371 715 L 371 711 L 373 709 L 373 713 L 405 672 L 419 660 L 511 635 L 500 638 L 496 637 L 519 630 L 523 631 L 513 634 L 572 619 L 578 617 L 552 624 L 548 623 L 603 608 L 603 606 L 610 606 L 629 601 L 626 597 L 627 594 L 631 600 L 652 594 L 662 595 L 662 597 L 659 597 L 664 598 Z M 434 595 L 435 594 L 437 594 L 441 596 L 440 597 L 437 597 Z M 582 606 L 581 608 L 570 607 L 563 610 L 560 610 L 553 613 L 555 615 L 554 616 L 548 616 L 547 617 L 528 620 L 523 622 L 509 624 L 504 626 L 503 625 L 492 625 L 491 626 L 484 626 L 483 627 L 462 628 L 461 629 L 461 633 L 472 633 L 473 632 L 479 632 L 486 630 L 490 630 L 491 631 L 487 633 L 475 634 L 468 636 L 440 637 L 434 633 L 430 625 L 433 624 L 436 627 L 437 626 L 456 626 L 460 625 L 466 622 L 481 617 L 484 617 L 502 611 L 505 609 L 535 599 L 538 599 L 543 596 L 546 596 L 553 593 L 556 594 L 551 597 L 540 600 L 537 602 L 466 625 L 514 621 L 515 620 L 519 620 L 524 618 L 534 617 L 550 613 L 556 609 L 569 605 L 574 605 L 575 606 L 580 606 L 581 605 Z M 399 594 L 400 593 L 403 595 L 408 595 L 412 593 L 413 595 L 411 598 L 409 599 L 405 597 L 401 597 Z M 485 595 L 484 596 L 482 596 L 478 598 L 475 598 L 474 599 L 471 599 L 467 601 L 461 601 L 460 600 L 458 600 L 460 600 L 461 601 L 460 602 L 452 601 L 451 600 L 452 599 L 456 599 L 454 598 L 450 598 L 447 596 L 448 595 L 451 595 L 452 596 L 456 596 L 457 597 L 461 597 L 462 598 L 468 598 L 469 597 L 479 595 L 481 592 L 483 592 Z M 555 593 L 558 591 L 560 591 L 561 592 L 558 594 L 556 594 Z M 404 593 L 406 591 L 410 591 L 411 592 L 410 593 L 408 593 L 406 595 Z M 910 587 L 911 588 L 911 590 L 910 591 L 909 590 L 909 588 Z M 1024 587 L 1014 591 L 1010 591 L 1009 592 L 1006 592 L 1001 594 L 992 595 L 981 599 L 978 599 L 977 598 L 983 595 L 993 593 L 994 592 L 997 592 L 998 591 L 1007 590 L 1008 589 L 1011 589 L 1012 588 L 1015 588 L 1020 586 L 1023 586 Z M 925 585 L 926 586 L 926 589 L 925 590 L 924 589 L 924 586 Z M 377 585 L 378 584 L 381 584 L 382 585 L 381 586 L 378 586 Z M 482 584 L 483 583 L 487 583 L 488 584 L 496 586 L 498 588 L 497 589 L 493 589 L 488 586 L 486 586 Z M 381 584 L 382 583 L 384 583 L 385 584 L 384 585 L 382 585 Z M 479 583 L 480 582 L 482 582 L 483 583 L 482 584 L 480 584 Z M 425 583 L 422 585 L 420 585 L 413 588 L 410 588 L 406 590 L 403 590 L 393 594 L 392 595 L 396 599 L 395 600 L 391 599 L 390 598 L 390 596 L 388 596 L 387 597 L 384 597 L 383 596 L 390 592 L 395 591 L 401 588 L 404 588 L 405 587 L 407 587 L 414 584 L 421 583 L 422 582 L 424 582 Z M 632 583 L 637 581 L 642 581 L 643 582 L 642 583 L 638 583 L 637 584 L 633 584 Z M 518 582 L 519 581 L 521 581 L 522 582 L 525 582 L 536 586 L 538 588 L 539 594 L 538 595 L 537 594 L 536 590 L 534 590 L 533 589 L 534 588 L 533 587 L 528 586 L 524 584 L 521 584 Z M 471 582 L 468 584 L 464 584 L 463 585 L 456 586 L 452 588 L 448 588 L 447 589 L 442 590 L 439 592 L 447 593 L 448 594 L 447 596 L 440 595 L 435 591 L 436 589 L 438 589 L 448 585 L 452 585 L 456 583 L 461 583 L 466 581 L 470 581 Z M 424 582 L 425 581 L 427 581 L 428 582 L 427 583 L 425 583 Z M 642 581 L 643 580 L 646 580 L 647 581 L 646 582 L 643 582 Z M 926 579 L 927 580 L 927 584 L 926 585 L 925 584 L 925 580 Z M 427 581 L 431 579 L 434 579 L 435 580 L 431 582 L 428 582 Z M 434 579 L 435 578 L 437 578 L 438 579 L 437 580 L 435 580 Z M 942 577 L 943 578 L 943 582 L 942 583 L 941 582 L 941 578 Z M 437 578 L 441 576 L 443 576 L 444 577 L 441 579 L 438 579 Z M 443 576 L 444 575 L 446 575 L 447 576 L 446 577 L 444 577 Z M 1287 575 L 1288 574 L 1290 574 L 1291 575 L 1290 576 L 1288 576 Z M 927 574 L 928 575 L 928 579 L 927 580 L 926 579 L 926 575 Z M 697 574 L 702 580 L 701 582 L 697 578 L 696 576 Z M 943 573 L 944 574 L 944 576 L 943 577 L 942 576 L 942 574 Z M 677 574 L 675 576 L 667 577 L 666 578 L 658 579 L 657 580 L 653 580 L 652 581 L 647 581 L 646 580 L 647 579 L 655 578 L 656 577 L 664 576 L 665 575 L 673 574 L 674 573 L 676 573 Z M 446 575 L 450 573 L 452 573 L 453 574 L 451 576 L 447 576 Z M 460 572 L 457 574 L 453 574 L 452 573 L 457 571 L 459 571 Z M 476 571 L 477 570 L 481 570 L 485 572 L 492 573 L 496 575 L 507 577 L 508 578 L 518 580 L 519 581 L 518 582 L 513 582 L 509 580 L 498 578 L 497 577 L 487 575 L 483 573 L 480 573 L 479 572 L 477 573 Z M 414 571 L 415 570 L 419 570 L 420 571 L 419 572 L 415 572 Z M 923 568 L 925 570 L 925 573 L 924 574 L 923 584 L 922 585 L 922 589 L 921 590 L 920 597 L 919 598 L 908 601 L 907 600 L 907 597 L 908 596 L 908 592 L 909 591 L 910 592 L 910 595 L 916 595 L 916 589 L 917 588 L 917 583 L 918 582 L 919 574 L 922 572 L 916 572 L 915 573 L 914 571 L 915 570 L 919 570 Z M 477 570 L 476 571 L 465 571 L 464 572 L 460 572 L 459 571 L 460 570 L 468 569 L 469 568 L 476 569 Z M 1310 568 L 1311 567 L 1313 567 L 1314 568 L 1313 569 L 1311 569 Z M 928 568 L 931 566 L 935 566 L 936 567 L 931 569 L 929 569 Z M 939 565 L 940 566 L 940 568 L 939 569 L 939 573 L 938 574 L 938 578 L 937 579 L 937 584 L 936 585 L 936 590 L 935 591 L 935 593 L 931 595 L 924 596 L 923 595 L 923 592 L 925 590 L 926 591 L 932 591 L 932 589 L 933 588 L 934 574 L 936 569 L 936 567 L 935 566 L 936 565 Z M 656 566 L 652 569 L 648 569 L 645 571 L 640 571 L 632 574 L 623 575 L 618 577 L 611 577 L 610 576 L 611 575 L 619 574 L 620 573 L 623 573 L 628 571 L 632 571 L 636 569 L 640 569 L 648 566 L 650 566 L 651 567 L 654 565 Z M 370 564 L 371 569 L 377 582 L 376 585 L 368 587 L 360 591 L 355 592 L 352 594 L 347 595 L 344 597 L 323 604 L 318 607 L 310 609 L 293 617 L 288 618 L 271 626 L 264 628 L 262 630 L 258 631 L 253 634 L 248 635 L 246 637 L 244 637 L 234 642 L 232 642 L 226 645 L 231 645 L 232 646 L 230 648 L 227 649 L 225 648 L 220 649 L 217 651 L 208 654 L 210 654 L 215 651 L 224 648 L 226 649 L 220 653 L 211 656 L 210 657 L 216 659 L 216 660 L 212 662 L 211 660 L 208 660 L 205 662 L 203 662 L 202 661 L 206 658 L 205 659 L 200 659 L 199 658 L 201 651 L 209 636 L 209 634 L 211 632 L 212 629 L 219 622 L 223 621 L 235 615 L 250 610 L 255 607 L 265 604 L 270 601 L 272 601 L 290 593 L 292 593 L 295 591 L 297 591 L 300 589 L 305 588 L 310 585 L 315 584 L 338 574 L 343 573 L 348 570 L 353 569 L 356 567 L 361 566 L 367 563 Z M 953 561 L 955 562 L 956 564 L 954 569 L 952 586 L 949 590 L 946 590 L 945 591 L 940 592 L 939 590 L 941 586 L 947 586 L 948 585 L 949 575 L 950 574 L 950 570 L 951 569 L 951 565 L 952 564 L 952 563 L 950 562 L 951 561 Z M 505 560 L 507 559 L 508 560 L 512 560 L 513 561 L 510 563 L 509 562 L 507 562 Z M 475 558 L 476 557 L 478 557 L 480 559 L 484 559 L 485 560 L 496 562 L 500 564 L 507 565 L 511 567 L 515 567 L 519 569 L 522 569 L 530 572 L 537 573 L 541 575 L 548 576 L 552 578 L 559 579 L 570 583 L 589 583 L 590 584 L 591 583 L 592 584 L 626 584 L 627 583 L 632 583 L 633 584 L 632 585 L 628 585 L 623 587 L 606 587 L 605 586 L 573 586 L 572 587 L 570 585 L 563 584 L 559 582 L 556 582 L 548 579 L 541 578 L 530 574 L 527 574 L 526 573 L 511 570 L 507 568 L 500 567 L 496 565 L 485 563 L 481 561 L 478 561 L 476 560 Z M 681 556 L 682 555 L 684 555 L 685 556 L 684 557 L 682 557 Z M 685 555 L 686 554 L 688 554 L 689 555 L 688 556 L 686 556 Z M 398 552 L 404 557 L 404 558 L 415 570 L 409 573 L 401 575 L 398 577 L 396 577 L 386 581 L 384 578 L 384 576 L 382 573 L 382 571 L 379 566 L 379 564 L 377 560 L 379 558 L 381 558 L 382 557 L 387 556 L 390 554 Z M 690 554 L 692 552 L 695 552 L 696 551 L 700 551 L 701 552 L 700 553 L 697 553 L 692 555 Z M 1322 551 L 1315 554 L 1312 554 L 1305 557 L 1302 557 L 1301 558 L 1293 560 L 1290 562 L 1289 561 L 1292 556 L 1296 552 L 1297 554 L 1295 557 L 1300 555 L 1303 555 L 1307 553 L 1310 553 L 1314 551 L 1317 551 L 1318 550 L 1321 550 Z M 1297 551 L 1298 550 L 1301 550 L 1302 551 L 1301 552 L 1298 552 Z M 700 551 L 704 549 L 707 549 L 708 550 L 704 552 L 701 552 Z M 1336 547 L 1325 551 L 1322 551 L 1321 550 L 1332 546 L 1335 546 Z M 1316 547 L 1305 551 L 1302 551 L 1301 550 L 1312 546 L 1315 546 Z M 405 548 L 404 549 L 396 548 L 395 549 L 384 552 L 381 554 L 376 555 L 373 557 L 365 559 L 352 565 L 336 570 L 333 572 L 331 572 L 328 574 L 326 574 L 308 582 L 303 583 L 298 586 L 296 586 L 293 588 L 291 588 L 288 590 L 286 590 L 283 592 L 281 592 L 278 594 L 276 594 L 273 596 L 271 596 L 268 598 L 266 598 L 263 600 L 261 600 L 258 602 L 256 602 L 253 604 L 251 604 L 248 606 L 246 606 L 243 608 L 236 610 L 226 615 L 221 616 L 217 618 L 209 626 L 207 631 L 205 633 L 205 635 L 201 643 L 199 645 L 199 647 L 197 649 L 196 648 L 197 644 L 208 623 L 215 616 L 221 613 L 223 613 L 226 611 L 228 611 L 231 609 L 233 609 L 236 607 L 238 607 L 241 605 L 243 605 L 246 603 L 248 603 L 251 601 L 253 601 L 256 599 L 258 599 L 261 597 L 263 597 L 266 595 L 268 595 L 271 593 L 273 593 L 276 591 L 278 591 L 281 589 L 283 589 L 286 587 L 288 587 L 291 585 L 293 585 L 296 583 L 298 583 L 316 575 L 321 574 L 334 568 L 339 567 L 342 565 L 347 564 L 355 560 L 363 558 L 376 552 L 381 551 L 384 549 L 386 549 L 393 546 L 401 546 Z M 1335 546 L 1336 545 L 1338 545 L 1339 546 L 1338 547 L 1336 547 Z M 1315 546 L 1319 544 L 1321 544 L 1322 545 L 1319 547 L 1316 547 Z M 1321 544 L 1322 543 L 1325 543 L 1326 544 L 1325 545 L 1322 545 Z M 1325 543 L 1326 542 L 1328 542 L 1329 543 L 1328 544 L 1326 544 Z M 1329 542 L 1330 541 L 1332 541 L 1333 542 L 1332 543 L 1330 543 Z M 1332 541 L 1333 540 L 1335 540 L 1336 541 L 1335 542 L 1333 542 Z M 563 540 L 564 539 L 567 539 L 568 540 L 567 541 L 564 541 Z M 752 537 L 751 538 L 749 538 L 727 546 L 724 546 L 720 548 L 716 548 L 711 550 L 708 550 L 707 549 L 711 547 L 714 547 L 722 544 L 725 544 L 735 540 L 738 540 L 748 536 L 751 536 Z M 1068 535 L 1069 533 L 1071 533 L 1072 534 L 1070 537 Z M 764 532 L 758 536 L 755 536 L 754 537 L 752 537 L 751 536 L 754 534 L 757 534 L 762 531 Z M 574 530 L 575 532 L 573 534 L 572 532 Z M 519 530 L 515 532 L 509 533 L 504 542 L 504 543 L 506 543 L 507 544 L 506 545 L 503 545 L 502 546 L 500 546 L 499 545 L 506 533 L 504 532 L 505 531 L 510 531 L 515 529 L 518 529 Z M 769 529 L 765 532 L 763 531 L 767 528 Z M 546 529 L 547 528 L 550 530 L 555 530 L 560 532 L 569 533 L 572 535 L 570 537 L 566 535 L 562 535 L 561 534 L 557 534 L 552 532 L 548 532 Z M 518 529 L 519 528 L 521 528 L 522 529 L 521 530 L 519 530 Z M 680 527 L 681 529 L 678 535 L 676 537 L 675 535 L 678 529 Z M 521 528 L 525 526 L 528 526 L 529 527 L 525 529 L 522 529 Z M 774 526 L 770 529 L 768 528 L 772 525 Z M 779 523 L 775 526 L 773 525 L 777 522 Z M 1155 522 L 1155 524 L 1153 526 L 1149 526 L 1153 526 L 1154 527 L 1153 529 L 1148 529 L 1146 527 L 1144 527 L 1143 528 L 1139 528 L 1138 529 L 1135 529 L 1130 531 L 1126 531 L 1121 533 L 1117 533 L 1113 535 L 1110 535 L 1109 536 L 1106 536 L 1101 538 L 1100 537 L 1102 533 L 1103 534 L 1104 533 L 1109 533 L 1111 531 L 1108 525 L 1110 523 L 1112 523 L 1113 522 L 1116 526 L 1116 529 L 1115 530 L 1113 527 L 1113 529 L 1118 530 L 1119 529 L 1124 529 L 1125 528 L 1133 527 L 1134 526 L 1137 526 L 1142 524 L 1146 524 L 1154 521 Z M 545 534 L 544 535 L 541 535 L 540 534 L 536 534 L 531 532 L 529 534 L 528 533 L 528 531 L 530 527 L 528 526 L 532 524 L 530 525 L 526 525 L 525 526 L 515 527 L 514 528 L 511 528 L 510 529 L 507 529 L 502 531 L 499 531 L 498 530 L 500 528 L 505 527 L 506 526 L 510 526 L 511 525 L 516 525 L 517 524 L 522 524 L 523 523 L 527 523 L 528 522 L 542 520 L 543 521 L 542 522 L 536 523 L 533 526 L 531 530 L 533 530 L 537 532 L 541 532 Z M 1096 520 L 1094 522 L 1087 523 L 1083 525 L 1079 525 L 1078 524 L 1081 522 L 1084 522 L 1088 520 L 1093 520 L 1094 519 Z M 784 520 L 780 523 L 778 522 L 782 519 Z M 685 519 L 686 521 L 681 528 L 680 526 Z M 544 520 L 545 519 L 548 519 L 549 521 L 548 522 Z M 1098 523 L 1099 520 L 1101 518 L 1103 518 L 1104 519 L 1107 519 L 1108 518 L 1110 519 L 1111 518 L 1113 518 L 1114 519 L 1109 522 L 1105 523 L 1103 525 L 1101 525 L 1100 524 L 1102 523 L 1102 522 L 1100 524 Z M 788 516 L 789 517 L 786 519 L 785 518 Z M 688 514 L 689 516 L 686 520 L 685 518 Z M 1121 514 L 1122 513 L 1124 513 L 1125 514 L 1124 515 L 1122 515 Z M 794 514 L 790 517 L 788 516 L 792 513 Z M 1201 513 L 1200 515 L 1198 515 L 1197 516 L 1189 517 L 1188 518 L 1185 518 L 1180 520 L 1176 520 L 1175 521 L 1171 521 L 1170 522 L 1167 522 L 1162 524 L 1161 523 L 1161 521 L 1162 520 L 1165 520 L 1170 518 L 1175 518 L 1176 517 L 1184 516 L 1189 514 L 1193 514 L 1198 512 L 1200 512 Z M 1125 513 L 1126 512 L 1129 512 L 1130 513 L 1129 514 L 1126 514 Z M 690 511 L 691 513 L 689 515 L 688 513 Z M 799 511 L 795 514 L 793 513 L 797 510 Z M 1205 509 L 1206 510 L 1206 515 L 1205 516 L 1204 515 L 1204 510 Z M 1223 509 L 1221 511 L 1218 511 L 1213 513 L 1209 513 L 1208 514 L 1206 513 L 1207 511 L 1213 510 L 1214 509 L 1218 509 L 1219 508 L 1222 508 Z M 1223 508 L 1224 507 L 1227 507 L 1228 508 L 1227 509 L 1224 509 Z M 804 508 L 800 511 L 798 510 L 802 507 Z M 1252 507 L 1252 510 L 1250 512 L 1236 514 L 1235 515 L 1232 515 L 1231 516 L 1228 516 L 1223 518 L 1219 518 L 1218 519 L 1211 520 L 1206 522 L 1205 524 L 1204 522 L 1203 523 L 1197 523 L 1196 524 L 1193 524 L 1188 526 L 1184 526 L 1183 527 L 1180 527 L 1179 528 L 1176 528 L 1175 529 L 1172 529 L 1167 531 L 1163 529 L 1165 527 L 1175 525 L 1176 524 L 1185 523 L 1186 522 L 1194 521 L 1199 519 L 1200 520 L 1205 518 L 1206 519 L 1207 517 L 1210 517 L 1215 515 L 1219 515 L 1220 514 L 1224 514 L 1225 513 L 1228 513 L 1229 512 L 1232 512 L 1237 510 L 1241 510 L 1242 509 L 1249 508 L 1251 506 Z M 1227 507 L 1228 506 L 1231 506 L 1232 507 L 1231 508 L 1228 508 Z M 1206 506 L 1207 507 L 1207 509 L 1206 510 L 1205 509 L 1205 507 Z M 1155 506 L 1156 506 L 1161 511 L 1161 514 L 1162 515 L 1162 519 L 1161 520 L 1160 519 L 1158 511 L 1154 507 Z M 1231 506 L 1232 505 L 1235 505 L 1236 506 L 1235 507 L 1232 507 Z M 808 504 L 809 505 L 806 507 L 805 506 Z M 1173 503 L 1174 502 L 1184 502 L 1185 503 L 1184 504 L 1174 504 Z M 1186 502 L 1187 501 L 1191 501 L 1192 502 L 1191 503 L 1187 503 Z M 813 501 L 814 502 L 811 504 L 810 503 Z M 818 498 L 819 499 L 816 501 L 815 500 Z M 601 498 L 602 497 L 607 497 L 608 498 L 607 499 L 602 499 Z M 1223 498 L 1227 496 L 1231 496 L 1236 498 L 1251 499 L 1252 500 L 1252 502 L 1251 503 L 1243 503 L 1242 502 L 1238 502 L 1235 500 L 1230 500 L 1229 499 L 1224 499 Z M 608 497 L 609 496 L 611 496 L 612 497 L 611 498 L 609 498 Z M 1043 496 L 1044 495 L 1046 498 L 1045 499 Z M 826 495 L 820 499 L 818 498 L 824 494 Z M 1173 492 L 1174 493 L 1174 496 L 1173 497 L 1172 496 L 1172 493 Z M 831 492 L 827 495 L 825 494 L 829 491 Z M 835 488 L 836 489 L 833 491 L 832 490 Z M 1091 487 L 1092 486 L 1094 489 L 1093 490 Z M 710 486 L 711 487 L 710 491 L 708 493 L 704 502 L 702 504 L 700 509 L 692 521 L 690 526 L 685 533 L 683 538 L 681 540 L 679 545 L 677 547 L 671 558 L 673 557 L 678 557 L 679 558 L 713 558 L 715 560 L 718 560 L 719 561 L 718 562 L 714 562 L 710 560 L 668 560 L 667 558 L 672 551 L 676 542 L 682 533 L 685 526 L 687 524 L 689 519 L 693 514 L 695 509 L 703 497 L 707 488 Z M 586 492 L 588 489 L 591 489 L 596 487 L 610 486 L 611 487 L 618 488 L 620 490 L 620 491 L 616 494 L 619 494 L 620 493 L 625 493 L 626 494 L 622 496 L 612 497 L 611 496 L 596 496 L 595 495 L 589 495 Z M 1043 483 L 1044 484 L 1044 486 L 1042 490 L 1042 492 L 1044 494 L 1043 496 L 1039 491 Z M 663 521 L 663 529 L 653 539 L 645 550 L 634 552 L 633 554 L 631 553 L 630 554 L 625 554 L 612 558 L 607 558 L 600 560 L 573 559 L 570 557 L 550 552 L 548 553 L 544 550 L 534 548 L 532 546 L 530 540 L 526 539 L 529 538 L 530 535 L 535 546 L 542 547 L 549 550 L 557 551 L 573 556 L 587 558 L 584 550 L 580 544 L 572 543 L 569 541 L 572 540 L 577 542 L 582 542 L 606 503 L 600 503 L 598 501 L 595 502 L 575 531 L 574 529 L 589 507 L 588 505 L 589 504 L 590 505 L 597 498 L 601 498 L 602 499 L 601 500 L 612 502 L 638 496 L 643 496 L 648 494 L 635 493 L 628 495 L 627 494 L 628 492 L 635 491 L 631 491 L 627 489 L 623 489 L 620 487 L 609 485 L 608 484 L 609 483 L 614 483 L 618 485 L 622 485 L 652 493 L 655 496 Z M 1296 482 L 1298 483 L 1298 486 L 1297 487 L 1295 484 Z M 1045 478 L 1046 479 L 1046 481 L 1044 484 L 1043 483 L 1043 481 Z M 1210 477 L 1208 480 L 1197 480 L 1196 479 L 1197 478 L 1204 477 L 1205 476 L 1209 476 Z M 1085 475 L 1090 481 L 1089 483 L 1085 479 L 1084 477 Z M 1047 473 L 1048 474 L 1048 476 L 1046 479 L 1045 478 L 1045 476 Z M 824 472 L 825 471 L 827 471 L 828 472 L 827 473 L 825 473 Z M 1203 471 L 1202 472 L 1198 472 L 1197 473 L 1186 475 L 1185 476 L 1185 479 L 1186 480 L 1186 488 L 1185 489 L 1184 488 L 1184 482 L 1183 481 L 1182 476 L 1175 476 L 1175 480 L 1174 481 L 1173 480 L 1173 476 L 1166 475 L 1165 474 L 1166 473 L 1172 473 L 1173 474 L 1187 473 L 1188 472 L 1196 471 L 1197 470 L 1202 470 Z M 1086 472 L 1090 470 L 1093 470 L 1094 471 L 1090 473 L 1087 473 Z M 1083 470 L 1085 473 L 1085 475 L 1084 476 L 1082 474 L 1082 471 Z M 1093 470 L 1094 469 L 1096 469 L 1097 470 L 1096 471 L 1094 471 Z M 827 471 L 831 469 L 835 469 L 836 470 L 831 472 L 828 472 Z M 1082 467 L 1083 468 L 1083 470 L 1082 471 L 1081 470 L 1081 468 Z M 1050 465 L 1051 466 L 1051 468 L 1048 474 L 1047 473 L 1047 470 Z M 1053 469 L 1055 467 L 1058 467 L 1065 464 L 1072 469 L 1077 464 L 1078 466 L 1074 470 L 1075 474 L 1078 477 L 1079 480 L 1084 486 L 1091 497 L 1095 501 L 1101 510 L 1107 516 L 1105 511 L 1099 503 L 1094 494 L 1094 492 L 1095 491 L 1096 492 L 1098 492 L 1099 491 L 1107 490 L 1111 488 L 1116 488 L 1121 486 L 1127 486 L 1128 487 L 1127 488 L 1119 489 L 1114 491 L 1109 491 L 1108 492 L 1097 494 L 1098 497 L 1100 498 L 1105 498 L 1106 499 L 1116 501 L 1117 502 L 1121 502 L 1122 503 L 1127 503 L 1132 505 L 1136 505 L 1146 509 L 1145 510 L 1140 510 L 1139 509 L 1131 508 L 1130 507 L 1127 507 L 1122 505 L 1118 505 L 1117 504 L 1114 504 L 1113 503 L 1110 503 L 1109 502 L 1102 501 L 1101 500 L 1101 502 L 1104 505 L 1105 508 L 1109 513 L 1109 515 L 1111 517 L 1110 518 L 1106 518 L 1104 519 L 1087 497 L 1073 476 L 1073 481 L 1070 483 L 1069 482 L 1070 474 L 1065 473 L 1064 472 L 1061 472 L 1057 470 L 1054 470 Z M 1173 469 L 1174 468 L 1177 468 L 1177 456 L 1179 454 L 1180 455 L 1179 457 L 1179 468 L 1181 467 L 1193 466 L 1194 465 L 1197 465 L 1198 466 L 1196 468 L 1190 468 L 1189 469 L 1184 469 L 1183 470 L 1174 470 Z M 1165 455 L 1166 454 L 1168 454 L 1169 455 L 1168 456 L 1166 456 Z M 1173 452 L 1174 451 L 1175 453 L 1177 454 L 1176 455 L 1174 455 L 1173 454 Z M 1088 458 L 1087 460 L 1083 460 L 1081 461 L 1081 465 L 1080 466 L 1077 464 L 1079 460 L 1074 460 L 1073 461 L 1065 462 L 1060 464 L 1056 464 L 1051 466 L 1050 465 L 1050 463 L 1051 462 L 1057 462 L 1058 461 L 1061 461 L 1066 459 L 1070 459 L 1075 457 L 1079 457 L 1074 449 L 1075 448 L 1079 448 L 1080 447 L 1081 447 L 1085 451 L 1086 455 Z M 1170 444 L 1171 446 L 1169 448 L 1167 448 L 1166 447 Z M 1198 441 L 1198 442 L 1196 443 L 1193 447 L 1192 446 L 1188 446 L 1187 447 L 1185 446 L 1184 447 L 1183 452 L 1181 454 L 1180 453 L 1181 448 L 1182 447 L 1182 445 L 1181 444 L 1182 442 L 1183 443 L 1187 439 L 1192 439 L 1193 440 L 1197 440 Z M 1171 441 L 1171 443 L 1170 444 L 1169 443 L 1164 443 L 1164 446 L 1165 447 L 1163 448 L 1161 451 L 1159 450 L 1162 446 L 1162 442 L 1157 444 L 1150 444 L 1149 445 L 1135 446 L 1134 447 L 1130 447 L 1129 446 L 1130 444 L 1134 444 L 1135 443 L 1141 443 L 1142 442 L 1148 442 L 1149 441 L 1157 441 L 1158 440 L 1161 440 L 1159 438 L 1160 437 L 1164 440 L 1169 438 Z M 1151 439 L 1154 437 L 1155 438 L 1154 440 L 1152 440 Z M 983 438 L 984 437 L 987 441 L 986 442 Z M 1210 435 L 1210 437 L 1209 438 L 1202 438 L 1201 440 L 1199 436 L 1200 434 L 1206 434 L 1207 433 Z M 980 434 L 981 433 L 984 437 L 983 438 Z M 1007 429 L 1008 427 L 1012 427 L 1013 428 L 1010 430 L 1008 430 Z M 1001 416 L 1006 421 L 1008 424 L 1008 426 L 1007 427 L 996 428 L 995 427 L 995 425 L 997 422 L 999 422 L 1001 424 L 1003 423 L 1003 422 L 1001 422 L 999 420 L 999 418 Z M 1012 414 L 1013 413 L 1016 413 L 1020 417 L 1021 421 L 1019 423 L 1015 423 L 1014 422 L 1015 420 L 1014 419 L 1014 416 Z M 841 409 L 842 408 L 844 408 L 845 409 L 844 410 L 842 410 Z M 899 404 L 900 403 L 903 403 L 904 404 L 903 405 L 900 405 Z M 904 403 L 905 402 L 908 402 L 909 403 L 908 404 L 905 404 Z M 908 402 L 913 400 L 918 400 L 919 401 L 918 402 L 914 402 L 913 403 L 909 403 Z M 1013 399 L 1016 401 L 1018 401 L 1020 403 L 1029 419 L 1041 437 L 1042 441 L 1040 443 L 1037 443 L 1036 444 L 1026 445 L 1025 446 L 1017 447 L 1016 448 L 1013 448 L 1008 450 L 1004 450 L 999 452 L 995 452 L 988 445 L 989 443 L 995 449 L 1000 447 L 1003 447 L 1004 446 L 1007 446 L 1008 445 L 1011 445 L 1016 443 L 1023 443 L 1028 441 L 1038 440 L 1038 438 L 1028 423 L 1018 405 L 1011 406 L 1010 407 L 1007 407 L 1002 409 L 998 409 L 993 411 L 989 411 L 984 413 L 981 413 L 981 417 L 984 423 L 988 428 L 989 431 L 991 433 L 992 436 L 996 441 L 999 447 L 997 448 L 991 439 L 990 436 L 986 431 L 985 428 L 981 423 L 979 418 L 975 413 L 970 412 L 970 415 L 971 416 L 971 427 L 977 430 L 976 431 L 974 431 L 973 430 L 971 430 L 969 428 L 968 410 L 971 408 L 980 407 L 981 406 L 984 406 L 989 404 L 998 403 L 999 402 L 1002 402 L 1003 401 Z M 918 400 L 919 399 L 923 399 L 924 400 L 923 401 L 919 401 Z M 923 399 L 924 398 L 927 398 L 928 399 L 927 400 L 924 400 Z M 927 398 L 928 397 L 932 397 L 933 398 L 932 399 L 928 399 Z M 932 397 L 933 396 L 936 396 L 937 397 L 936 398 L 933 398 Z M 936 396 L 937 395 L 940 395 L 941 396 L 940 397 L 937 397 Z M 899 391 L 900 390 L 903 390 L 904 391 L 903 392 L 900 392 Z M 829 392 L 832 390 L 834 390 L 835 391 L 832 393 L 830 393 Z M 903 390 L 904 389 L 907 389 L 908 390 L 907 391 L 904 391 Z M 908 389 L 909 388 L 912 388 L 913 389 L 912 390 L 909 390 Z M 912 388 L 917 386 L 924 386 L 925 387 L 924 388 L 918 388 L 917 389 L 913 389 Z M 924 386 L 925 385 L 929 385 L 930 386 L 929 387 L 925 387 Z M 723 386 L 725 384 L 727 384 L 730 382 L 736 382 L 740 380 L 741 381 L 755 383 L 757 385 L 755 386 L 754 385 L 742 384 L 741 383 L 731 385 L 731 386 L 733 387 L 749 389 L 750 390 L 749 391 L 736 390 L 735 389 L 731 389 L 728 387 L 726 388 Z M 965 379 L 966 380 L 966 382 L 964 383 L 963 382 Z M 924 379 L 925 380 L 925 382 L 924 383 L 923 382 L 923 380 Z M 986 376 L 987 375 L 989 375 L 990 376 L 989 377 L 987 377 Z M 741 375 L 742 376 L 740 378 L 741 379 L 740 380 L 736 378 Z M 931 378 L 930 379 L 928 379 L 923 377 L 922 378 L 923 379 L 923 381 L 922 382 L 920 382 L 919 381 L 919 378 L 920 377 L 914 377 L 913 378 L 908 378 L 907 379 L 903 379 L 902 380 L 894 381 L 896 386 L 899 386 L 904 384 L 908 384 L 909 383 L 913 383 L 914 382 L 918 382 L 919 383 L 916 385 L 913 385 L 914 386 L 913 387 L 907 388 L 906 386 L 905 387 L 903 387 L 905 387 L 906 388 L 905 389 L 902 389 L 901 388 L 900 388 L 899 390 L 896 389 L 894 392 L 892 391 L 890 393 L 886 391 L 887 390 L 885 386 L 885 381 L 889 379 L 894 379 L 895 378 L 905 377 L 906 376 L 916 375 L 917 374 L 923 374 L 924 375 L 929 376 Z M 1006 373 L 1007 372 L 1010 372 L 1011 373 L 1010 374 L 1007 374 Z M 876 373 L 877 372 L 881 372 L 882 373 L 881 374 L 877 374 Z M 881 372 L 882 371 L 885 371 L 886 372 L 885 373 L 882 373 Z M 886 371 L 887 370 L 890 370 L 891 371 L 890 372 L 887 372 Z M 826 371 L 827 370 L 839 370 L 840 371 L 846 371 L 847 372 L 861 372 L 862 373 L 875 373 L 876 374 L 875 375 L 858 375 L 857 374 L 846 374 L 845 373 L 836 373 L 835 372 L 827 372 Z M 794 385 L 792 388 L 786 391 L 784 391 L 780 393 L 777 393 L 773 395 L 762 397 L 761 398 L 757 398 L 756 399 L 738 399 L 737 398 L 733 398 L 732 397 L 718 395 L 715 393 L 721 387 L 722 387 L 723 388 L 719 392 L 743 397 L 750 390 L 753 390 L 755 388 L 757 388 L 764 384 L 764 380 L 763 379 L 764 378 L 766 379 L 766 382 L 767 383 L 779 380 L 776 380 L 775 379 L 766 379 L 765 378 L 762 379 L 760 377 L 756 377 L 751 375 L 745 375 L 744 374 L 745 373 L 753 372 L 758 370 L 761 370 L 766 372 L 770 372 L 771 373 L 775 373 L 776 374 L 775 375 L 769 375 L 768 374 L 763 374 L 762 373 L 756 373 L 757 374 L 765 375 L 766 376 L 768 375 L 773 377 L 787 379 L 788 381 L 790 381 Z M 890 370 L 891 369 L 894 369 L 895 370 L 894 371 L 891 371 Z M 930 379 L 931 378 L 933 378 L 936 380 L 942 380 L 943 381 L 945 381 L 940 371 L 940 369 L 941 368 L 944 374 L 946 376 L 950 384 L 950 386 L 949 387 L 948 385 L 946 384 L 938 383 Z M 894 369 L 895 368 L 899 368 L 900 369 L 899 370 L 895 370 Z M 915 366 L 914 367 L 910 367 L 905 369 L 900 369 L 899 368 L 900 367 L 908 366 L 909 365 L 914 365 Z M 914 365 L 915 364 L 918 364 L 919 365 L 918 366 L 915 366 Z M 846 365 L 845 367 L 841 367 L 840 368 L 838 368 L 837 367 L 840 365 L 843 365 L 844 364 Z M 919 364 L 920 363 L 923 363 L 924 364 L 923 365 L 920 365 Z M 937 361 L 941 367 L 940 369 L 936 363 Z M 883 362 L 882 363 L 879 363 L 878 364 L 875 364 L 874 365 L 871 365 L 870 366 L 867 366 L 862 368 L 858 368 L 857 369 L 854 369 L 853 368 L 857 366 L 860 366 L 861 365 L 864 365 L 865 364 L 868 364 L 869 363 L 872 363 L 877 361 L 882 361 Z M 882 361 L 883 360 L 886 360 L 887 361 L 886 362 L 883 362 Z M 764 361 L 769 359 L 771 361 L 773 361 L 774 362 L 780 362 L 781 363 L 786 363 L 787 364 L 793 364 L 798 366 L 797 367 L 791 367 L 790 366 L 773 364 L 772 363 L 765 362 Z M 855 359 L 856 358 L 858 358 L 859 359 L 858 360 L 856 360 Z M 966 355 L 967 354 L 970 354 L 972 357 L 968 359 Z M 956 354 L 957 353 L 961 353 L 962 354 L 961 355 L 957 355 Z M 832 355 L 834 353 L 835 354 L 835 358 L 841 359 L 842 360 L 848 360 L 849 359 L 853 359 L 854 360 L 846 363 L 843 363 L 838 361 L 834 361 L 832 359 Z M 781 355 L 784 353 L 785 355 L 783 356 L 783 357 L 788 359 L 797 359 L 798 358 L 802 358 L 804 355 L 805 356 L 805 358 L 801 361 L 786 361 L 785 360 L 783 360 L 781 358 Z M 1008 353 L 1007 355 L 1007 368 L 1006 369 L 1002 367 L 1001 361 L 1000 360 L 994 360 L 993 361 L 985 362 L 984 363 L 973 363 L 970 360 L 971 359 L 976 359 L 977 360 L 992 359 L 993 358 L 989 358 L 986 356 L 987 355 L 991 355 L 992 354 L 1000 353 L 1005 351 Z M 984 341 L 985 340 L 988 340 L 989 341 L 988 342 L 985 342 Z M 942 354 L 944 350 L 946 342 L 949 339 L 956 339 L 957 340 L 962 340 L 963 341 L 968 341 L 969 342 L 974 342 L 975 343 L 981 343 L 982 344 L 987 344 L 988 345 L 998 346 L 999 347 L 1004 347 L 1005 346 L 1010 346 L 1011 345 L 1013 345 L 1014 346 L 1011 349 L 1003 350 L 1002 351 L 998 351 L 997 352 L 989 353 L 988 354 L 981 354 L 980 353 L 983 351 L 985 351 L 976 353 L 972 351 L 967 351 L 966 350 L 957 351 L 956 352 L 954 352 L 955 353 L 954 354 L 951 354 L 950 353 L 946 353 L 944 355 Z M 797 338 L 798 340 L 795 342 L 794 341 Z M 965 338 L 966 337 L 973 337 L 974 338 L 979 338 L 980 339 L 984 339 L 985 340 L 984 341 L 978 341 L 977 340 L 971 340 L 970 339 L 966 339 Z M 906 338 L 908 337 L 910 339 L 908 340 Z M 961 337 L 962 336 L 964 336 L 965 337 L 964 338 L 962 338 Z M 848 334 L 849 336 L 845 343 L 841 343 L 840 341 L 842 337 L 845 334 Z M 904 334 L 904 332 L 905 331 L 907 333 L 905 335 Z M 810 327 L 811 328 L 811 330 L 810 331 L 810 352 L 808 355 L 808 358 L 809 359 L 821 359 L 823 357 L 821 353 L 821 345 L 822 344 L 823 345 L 823 351 L 825 354 L 825 359 L 822 361 L 818 361 L 817 362 L 807 361 L 805 357 L 808 350 L 808 347 L 802 347 L 801 348 L 804 351 L 804 355 L 803 356 L 802 355 L 802 352 L 801 352 L 799 349 L 799 344 L 798 343 L 805 337 Z M 784 326 L 786 323 L 789 323 L 791 325 L 788 329 Z M 912 321 L 914 322 L 914 335 L 913 336 L 911 334 L 912 333 L 912 323 L 911 322 Z M 906 317 L 907 318 L 907 325 L 906 326 L 905 325 L 905 318 Z M 888 300 L 889 301 L 889 304 L 888 305 L 886 316 L 884 319 L 883 318 L 883 316 L 884 315 L 886 304 Z M 889 295 L 890 296 L 890 300 L 889 301 L 888 300 L 888 296 Z M 876 181 L 875 181 L 875 258 L 873 261 L 873 263 L 875 265 L 875 270 L 873 272 L 873 278 L 868 281 L 857 282 L 849 285 L 849 290 L 850 291 L 858 292 L 859 293 L 864 293 L 865 294 L 866 293 L 866 290 L 865 289 L 867 286 L 872 286 L 873 285 L 883 285 L 884 284 L 899 283 L 900 282 L 917 281 L 916 280 L 909 279 L 908 278 L 908 272 L 906 271 L 904 268 L 905 266 L 912 265 L 912 237 L 912 238 L 910 239 L 908 242 L 907 240 L 903 240 L 902 241 L 901 239 L 894 239 L 893 238 L 894 237 L 902 237 L 903 238 L 904 237 L 909 237 L 909 236 L 903 236 L 902 235 L 887 235 L 886 237 L 882 237 L 878 250 L 877 251 L 876 250 L 876 202 L 875 201 L 875 190 L 876 189 L 875 187 L 875 182 Z M 878 280 L 879 281 L 879 283 L 877 284 L 876 283 Z M 869 281 L 870 280 L 872 283 L 870 284 L 869 283 Z M 883 264 L 885 268 L 884 269 L 882 269 L 880 271 L 879 278 L 878 279 L 877 278 L 876 265 L 877 264 Z M 886 237 L 887 236 L 893 236 L 894 237 L 893 238 L 887 238 Z" fill="black" fill-rule="evenodd"/>
</svg>